<?xml version="1.0" encoding="UTF-8" standalone="no"?>
<!DOCTYPE svg PUBLIC "-//W3C//DTD SVG 1.1//EN"
 "http://www.w3.org/Graphics/SVG/1.1/DTD/svg11.dtd">
<!-- Generated by graphviz version 2.43.0 (0)
 -->
<!-- Title: dependency&#45;cruiser output Pages: 1 -->
<svg width="458pt" height="300pt"
 viewBox="0.00 0.00 458.00 299.81" xmlns="http://www.w3.org/2000/svg" xmlns:xlink="http://www.w3.org/1999/xlink">
<g id="graph0" class="graph" transform="scale(1 1) rotate(0) translate(4 295.81)">
<title>dependency&#45;cruiser output</title>
<polygon fill="white" stroke="transparent" points="-4,4 -4,-295.81 454,-295.81 454,4 -4,4"/>
<g id="clust1" class="cluster">
<title>cluster_modules</title>
<path fill="#ffffff" stroke="black" stroke-width="2" d="M20,-15.81C20,-15.81 430,-15.81 430,-15.81 436,-15.81 442,-21.81 442,-27.81 442,-27.81 442,-271.81 442,-271.81 442,-277.81 436,-283.81 430,-283.81 430,-283.81 20,-283.81 20,-283.81 14,-283.81 8,-277.81 8,-271.81 8,-271.81 8,-27.81 8,-27.81 8,-21.81 14,-15.81 20,-15.81"/>
<text text-anchor="middle" x="225" y="-272.61" font-family="Helvetica,sans-Serif" font-weight="bold" font-size="9.00">modules</text>
</g>
<!-- modules/auth/ -->
<g id="node1" class="node">
<title>modules/auth/</title>
<g id="a_node1"><a xlink:href="modules/auth/" xlink:title="auth">
<polygon fill="#ffffcc" stroke="black" points="434,-149.81 382,-149.81 380,-147.81 380,-131.81 432,-131.81 434,-133.81 434,-149.81"/>
<polyline fill="none" stroke="black" points="432,-147.81 380,-147.81 "/>
<polyline fill="none" stroke="black" points="432,-147.81 432,-131.81 "/>
<polyline fill="none" stroke="black" points="432,-147.81 434,-149.81 "/>
<text text-anchor="start" x="396" y="-138.61" font-family="Helvetica,sans-Serif" font-size="9.00">auth</text>
</a>
</g>
</g>
<!-- modules/company/ -->
<g id="node2" class="node">
<title>modules/company/</title>
<g id="a_node2"><a xlink:href="modules/company/" xlink:title="company">
<polygon fill="#ffffcc" stroke="black" points="367,-257.81 310,-257.81 308,-255.81 308,-239.81 365,-239.81 367,-241.81 367,-257.81"/>
<polyline fill="none" stroke="black" points="365,-255.81 308,-255.81 "/>
<polyline fill="none" stroke="black" points="365,-255.81 365,-239.81 "/>
<polyline fill="none" stroke="black" points="365,-255.81 367,-257.81 "/>
<text text-anchor="start" x="316" y="-246.61" font-family="Helvetica,sans-Serif" font-size="9.00">company</text>
</a>
</g>
</g>
<!-- modules/company/&#45;&gt;modules/auth/ -->
<g id="edge1" class="edge">
<title>modules/company/&#45;&gt;modules/auth/</title>
<path fill="none" stroke="#000000" stroke-width="2" stroke-opacity="0.200000" d="M356.67,-239.64C360.42,-237.15 364.11,-234.19 367,-230.81 386.21,-208.38 397.29,-175.05 402.44,-155.87"/>
<polygon fill="#000000" fill-opacity="0.200000" stroke="#000000" stroke-width="2" stroke-opacity="0.200000" points="404.5,-156.28 403.96,-149.94 400.43,-155.23 404.5,-156.28"/>
</g>
<!-- modules/movie/ -->
<g id="node3" class="node">
<title>modules/movie/</title>
<g id="a_node3"><a xlink:href="modules/movie/" xlink:title="movie">
<polygon fill="#ffffcc" stroke="black" points="364.5,-199.81 312.5,-199.81 310.5,-197.81 310.5,-181.81 362.5,-181.81 364.5,-183.81 364.5,-199.81"/>
<polyline fill="none" stroke="black" points="362.5,-197.81 310.5,-197.81 "/>
<polyline fill="none" stroke="black" points="362.5,-197.81 362.5,-181.81 "/>
<polyline fill="none" stroke="black" points="362.5,-197.81 364.5,-199.81 "/>
<text text-anchor="start" x="323.5" y="-188.61" font-family="Helvetica,sans-Serif" font-size="9.00">movie</text>
</a>
</g>
</g>
<!-- modules/movie/&#45;&gt;modules/auth/ -->
<g id="edge2" class="edge">
<title>modules/movie/&#45;&gt;modules/auth/</title>
<path fill="none" stroke="#000000" stroke-width="2" stroke-opacity="0.200000" d="M353.52,-181.81C357.94,-179.03 362.73,-175.89 367,-172.81 375.19,-166.9 383.92,-159.81 391.04,-153.82"/>
<polygon fill="#000000" fill-opacity="0.200000" stroke="#000000" stroke-width="2" stroke-opacity="0.200000" points="392.48,-155.35 395.69,-149.87 389.75,-152.15 392.48,-155.35"/>
</g>
<!-- modules/movieCollection/ -->
<g id="node4" class="node">
<title>modules/movieCollection/</title>
<g id="a_node4"><a xlink:href="modules/movieCollection/" xlink:title="movieCollection">
<polygon fill="#ffffcc" stroke="black" points="295,-243.81 210,-243.81 208,-241.81 208,-225.81 293,-225.81 295,-227.81 295,-243.81"/>
<polyline fill="none" stroke="black" points="293,-241.81 208,-241.81 "/>
<polyline fill="none" stroke="black" points="293,-241.81 293,-225.81 "/>
<polyline fill="none" stroke="black" points="293,-241.81 295,-243.81 "/>
<text text-anchor="start" x="216" y="-232.61" font-family="Helvetica,sans-Serif" font-size="9.00">movieCollection</text>
</a>
</g>
</g>
<!-- modules/movieCollection/&#45;&gt;modules/auth/ -->
<g id="edge3" class="edge">
<title>modules/movieCollection/&#45;&gt;modules/auth/</title>
<path fill="none" stroke="#000000" stroke-width="2" stroke-opacity="0.200000" d="M294.74,-225.75C324.84,-219.02 361.01,-210.26 367,-205.81 384,-193.17 395.05,-170.72 400.9,-155.8"/>
<polygon fill="#000000" fill-opacity="0.200000" stroke="#000000" stroke-width="2" stroke-opacity="0.200000" points="402.96,-156.27 403.09,-149.92 399.03,-154.8 402.96,-156.27"/>
</g>
<!-- modules/movieCollection/&#45;&gt;modules/movie/ -->
<g id="edge4" class="edge">
<title>modules/movieCollection/&#45;&gt;modules/movie/</title>
<path fill="none" stroke="#000000" stroke-opacity="0.200000" d="M275.75,-225.75C282.09,-223.07 288.89,-219.99 295,-216.81 296.22,-216.18 306.82,-209.54 316.99,-203.13"/>
<polygon fill="none" stroke="#000000" stroke-opacity="0.200000" points="318.27,-204.8 322.23,-199.83 316.03,-201.25 318.27,-204.8"/>
</g>
<!-- modules/movieReview/ -->
<g id="node5" class="node">
<title>modules/movieReview/</title>
<g id="a_node5"><a xlink:href="modules/movieReview/" xlink:title="movieReview">
<polygon fill="#ffffcc" stroke="black" points="190,-193.81 117,-193.81 115,-191.81 115,-175.81 188,-175.81 190,-177.81 190,-193.81"/>
<polyline fill="none" stroke="black" points="188,-191.81 115,-191.81 "/>
<polyline fill="none" stroke="black" points="188,-191.81 188,-175.81 "/>
<polyline fill="none" stroke="black" points="188,-191.81 190,-193.81 "/>
<text text-anchor="start" x="123" y="-182.61" font-family="Helvetica,sans-Serif" font-size="9.00">movieReview</text>
</a>
</g>
</g>
<!-- modules/movieReview/&#45;&gt;modules/auth/ -->
<g id="edge5" class="edge">
<title>modules/movieReview/&#45;&gt;modules/auth/</title>
<path fill="none" stroke="#000000" stroke-width="2" stroke-opacity="0.200000" d="M190.24,-184.61C233.47,-183.45 306.97,-178.54 367,-159.81 372.93,-157.96 379.09,-155.33 384.71,-152.61"/>
<polygon fill="#000000" fill-opacity="0.200000" stroke="#000000" stroke-width="2" stroke-opacity="0.200000" points="385.71,-154.46 390.13,-149.89 383.83,-150.71 385.71,-154.46"/>
</g>
<!-- modules/movieReview/&#45;&gt;modules/movie/ -->
<g id="edge6" class="edge">
<title>modules/movieReview/&#45;&gt;modules/movie/</title>
<path fill="none" stroke="#000000" stroke-opacity="0.200000" d="M190.13,-187.79C196.1,-188.19 202.22,-188.55 208,-188.81 240.81,-190.27 278.37,-190.71 304.38,-190.82"/>
<polygon fill="none" stroke="#000000" stroke-opacity="0.200000" points="304.39,-192.92 310.4,-190.85 304.41,-188.72 304.39,-192.92"/>
</g>
<!-- modules/review/ -->
<g id="node6" class="node">
<title>modules/review/</title>
<g id="a_node6"><a xlink:href="modules/review/" xlink:title="review">
<polygon fill="#ffffcc" stroke="black" points="278.5,-127.81 226.5,-127.81 224.5,-125.81 224.5,-109.81 276.5,-109.81 278.5,-111.81 278.5,-127.81"/>
<polyline fill="none" stroke="black" points="276.5,-125.81 224.5,-125.81 "/>
<polyline fill="none" stroke="black" points="276.5,-125.81 276.5,-109.81 "/>
<polyline fill="none" stroke="black" points="276.5,-125.81 278.5,-127.81 "/>
<text text-anchor="start" x="236.5" y="-116.61" font-family="Helvetica,sans-Serif" font-size="9.00">review</text>
</a>
</g>
</g>
<!-- modules/movieReview/&#45;&gt;modules/review/ -->
<g id="edge7" class="edge">
<title>modules/movieReview/&#45;&gt;modules/review/</title>
<path fill="none" stroke="#000000" stroke-opacity="0.200000" d="M161.1,-175.68C170.9,-164.43 188.95,-145.38 208,-133.81 211.25,-131.84 214.79,-130.07 218.41,-128.51"/>
<polygon fill="none" stroke="#000000" stroke-opacity="0.200000" points="219.32,-130.41 224.1,-126.22 217.75,-126.51 219.32,-130.41"/>
</g>
<!-- modules/user/ -->
<g id="node8" class="node">
<title>modules/user/</title>
<g id="a_node8"><a xlink:href="modules/user/" xlink:title="user">
<polygon fill="#ffffcc" stroke="black" points="364.5,-127.81 312.5,-127.81 310.5,-125.81 310.5,-109.81 362.5,-109.81 364.5,-111.81 364.5,-127.81"/>
<polyline fill="none" stroke="black" points="362.5,-125.81 310.5,-125.81 "/>
<polyline fill="none" stroke="black" points="362.5,-125.81 362.5,-109.81 "/>
<polyline fill="none" stroke="black" points="362.5,-125.81 364.5,-127.81 "/>
<text text-anchor="start" x="327.5" y="-116.61" font-family="Helvetica,sans-Serif" font-size="9.00">user</text>
</a>
</g>
</g>
<!-- modules/review/&#45;&gt;modules/user/ -->
<g id="edge11" class="edge">
<title>modules/review/&#45;&gt;modules/user/</title>
<path fill="none" stroke="#000000" stroke-opacity="0.200000" d="M278.62,-118.81C286.68,-118.81 295.65,-118.81 304.08,-118.81"/>
<polygon fill="none" stroke="#000000" stroke-opacity="0.200000" points="304.4,-120.91 310.4,-118.81 304.4,-116.71 304.4,-120.91"/>
</g>
<!-- modules/movieWatchlist/ -->
<g id="node7" class="node">
<title>modules/movieWatchlist/</title>
<g id="a_node7"><a xlink:href="modules/movieWatchlist/" xlink:title="movieWatchlist">
<polygon fill="#ffffcc" stroke="black" points="195,-243.81 112,-243.81 110,-241.81 110,-225.81 193,-225.81 195,-227.81 195,-243.81"/>
<polyline fill="none" stroke="black" points="193,-241.81 110,-241.81 "/>
<polyline fill="none" stroke="black" points="193,-241.81 193,-225.81 "/>
<polyline fill="none" stroke="black" points="193,-241.81 195,-243.81 "/>
<text text-anchor="start" x="118" y="-232.61" font-family="Helvetica,sans-Serif" font-size="9.00">movieWatchlist</text>
</a>
</g>
</g>
<!-- modules/movieWatchlist/&#45;&gt;modules/auth/ -->
<g id="edge9" class="edge">
<title>modules/movieWatchlist/&#45;&gt;modules/auth/</title>
<path fill="none" stroke="#000000" stroke-width="2" stroke-opacity="0.200000" d="M175.31,-243.95C204.18,-254.56 255.96,-268.39 295,-249.81 303.27,-245.87 300.32,-238.81 308,-233.81 330.78,-219 345.93,-234.97 367,-217.81 386.66,-201.8 397.37,-173.31 402.37,-155.84"/>
<polygon fill="#000000" fill-opacity="0.200000" stroke="#000000" stroke-width="2" stroke-opacity="0.200000" points="404.43,-156.28 403.96,-149.94 400.37,-155.19 404.43,-156.28"/>
</g>
<!-- modules/movieWatchlist/&#45;&gt;modules/movie/ -->
<g id="edge10" class="edge">
<title>modules/movieWatchlist/&#45;&gt;modules/movie/</title>
<path fill="none" stroke="#000000" stroke-opacity="0.200000" d="M185.42,-225.76C192.82,-223.73 200.67,-221.65 208,-219.81 240.66,-211.64 278.24,-203.27 304.29,-197.64"/>
<polygon fill="none" stroke="#000000" stroke-opacity="0.200000" points="304.9,-199.66 310.33,-196.34 304.02,-195.55 304.9,-199.66"/>
</g>
<!-- modules/movieWatchlist/&#45;&gt;modules/movieCollection/ -->
<g id="edge8" class="edge">
<title>modules/movieWatchlist/&#45;&gt;modules/movieCollection/</title>
<path fill="none" stroke="#000000" stroke-opacity="0.200000" d="M195.2,-234.81C197.3,-234.81 199.43,-234.81 201.55,-234.81"/>
<polygon fill="none" stroke="#000000" stroke-opacity="0.200000" points="201.91,-236.91 207.91,-234.81 201.91,-232.71 201.91,-236.91"/>
</g>
<!-- modules/user/&#45;&gt;modules/auth/ -->
<g id="edge26" class="edge">
<title>modules/user/&#45;&gt;modules/auth/</title>
<path fill="none" stroke="#000000" stroke-width="2" stroke-opacity="0.200000" d="M364.79,-127.38C367.69,-128.32 370.67,-129.3 373.63,-130.26"/>
<polygon fill="#000000" fill-opacity="0.200000" stroke="#000000" stroke-width="2" stroke-opacity="0.200000" points="373.31,-132.37 379.67,-132.23 374.62,-128.37 373.31,-132.37"/>
</g>
<!-- modules/season/ -->
<g id="node9" class="node">
<title>modules/season/</title>
<g id="a_node9"><a xlink:href="modules/season/" xlink:title="season">
<polygon fill="#ffffcc" stroke="black" points="364.5,-97.81 312.5,-97.81 310.5,-95.81 310.5,-79.81 362.5,-79.81 364.5,-81.81 364.5,-97.81"/>
<polyline fill="none" stroke="black" points="362.5,-95.81 310.5,-95.81 "/>
<polyline fill="none" stroke="black" points="362.5,-95.81 362.5,-79.81 "/>
<polyline fill="none" stroke="black" points="362.5,-95.81 364.5,-97.81 "/>
<text text-anchor="start" x="322" y="-86.61" font-family="Helvetica,sans-Serif" font-size="9.00">season</text>
</a>
</g>
</g>
<!-- modules/season/&#45;&gt;modules/auth/ -->
<g id="edge12" class="edge">
<title>modules/season/&#45;&gt;modules/auth/</title>
<path fill="none" stroke="#000000" stroke-width="2" stroke-opacity="0.200000" d="M357.64,-97.95C360.86,-99.75 364.09,-101.73 367,-103.81 376.55,-110.65 386.14,-119.71 393.42,-127.15"/>
<polygon fill="#000000" fill-opacity="0.200000" stroke="#000000" stroke-width="2" stroke-opacity="0.200000" points="391.96,-128.67 397.63,-131.54 394.99,-125.76 391.96,-128.67"/>
</g>
<!-- modules/seasonReview/ -->
<g id="node10" class="node">
<title>modules/seasonReview/</title>
<g id="a_node10"><a xlink:href="modules/seasonReview/" xlink:title="seasonReview">
<polygon fill="#ffffcc" stroke="black" points="192,-129.81 115,-129.81 113,-127.81 113,-111.81 190,-111.81 192,-113.81 192,-129.81"/>
<polyline fill="none" stroke="black" points="190,-127.81 113,-127.81 "/>
<polyline fill="none" stroke="black" points="190,-127.81 190,-111.81 "/>
<polyline fill="none" stroke="black" points="190,-127.81 192,-129.81 "/>
<text text-anchor="start" x="121" y="-118.61" font-family="Helvetica,sans-Serif" font-size="9.00">seasonReview</text>
</a>
</g>
</g>
<!-- modules/seasonReview/&#45;&gt;modules/auth/ -->
<g id="edge13" class="edge">
<title>modules/seasonReview/&#45;&gt;modules/auth/</title>
<path fill="none" stroke="#000000" stroke-width="2" stroke-opacity="0.200000" d="M161.27,-129.83C170.96,-140.34 188.64,-157.09 208,-163.81 244.53,-176.49 256.53,-167.75 295,-163.81 321.84,-161.06 351.77,-154.66 373.78,-149.3"/>
<polygon fill="#000000" fill-opacity="0.200000" stroke="#000000" stroke-width="2" stroke-opacity="0.200000" points="374.45,-151.3 379.77,-147.83 373.44,-147.23 374.45,-151.3"/>
</g>
<!-- modules/seasonReview/&#45;&gt;modules/review/ -->
<g id="edge15" class="edge">
<title>modules/seasonReview/&#45;&gt;modules/review/</title>
<path fill="none" stroke="#000000" stroke-opacity="0.200000" d="M192.12,-120.01C200.7,-119.84 209.72,-119.65 218.04,-119.48"/>
<polygon fill="none" stroke="#000000" stroke-opacity="0.200000" points="218.28,-121.58 224.24,-119.35 218.19,-117.38 218.28,-121.58"/>
</g>
<!-- modules/seasonReview/&#45;&gt;modules/season/ -->
<g id="edge14" class="edge">
<title>modules/seasonReview/&#45;&gt;modules/season/</title>
<path fill="none" stroke="#000000" stroke-opacity="0.200000" d="M179.02,-111.77C188.08,-108.85 198.4,-105.85 208,-103.81 240.34,-96.94 277.97,-93.01 304.12,-90.91"/>
<polygon fill="none" stroke="#000000" stroke-opacity="0.200000" points="304.36,-93 310.18,-90.44 304.04,-88.81 304.36,-93"/>
</g>
<!-- modules/show/ -->
<g id="node11" class="node">
<title>modules/show/</title>
<g id="a_node11"><a xlink:href="modules/show/" xlink:title="show">
<polygon fill="#ffffcc" stroke="black" points="278.5,-69.81 226.5,-69.81 224.5,-67.81 224.5,-51.81 276.5,-51.81 278.5,-53.81 278.5,-69.81"/>
<polyline fill="none" stroke="black" points="276.5,-67.81 224.5,-67.81 "/>
<polyline fill="none" stroke="black" points="276.5,-67.81 276.5,-51.81 "/>
<polyline fill="none" stroke="black" points="276.5,-67.81 278.5,-69.81 "/>
<text text-anchor="start" x="239.5" y="-58.61" font-family="Helvetica,sans-Serif" font-size="9.00">show</text>
</a>
</g>
</g>
<!-- modules/show/&#45;&gt;modules/auth/ -->
<g id="edge16" class="edge">
<title>modules/show/&#45;&gt;modules/auth/</title>
<path fill="none" stroke="#000000" stroke-width="2" stroke-opacity="0.200000" d="M278.78,-54.01C303.51,-49.19 340.59,-46.17 367,-62.81 389.02,-76.69 399.05,-107.09 403.27,-125.58"/>
<polygon fill="#000000" fill-opacity="0.200000" stroke="#000000" stroke-width="2" stroke-opacity="0.200000" points="401.28,-126.35 404.57,-131.79 405.39,-125.49 401.28,-126.35"/>
</g>
<!-- modules/show/&#45;&gt;modules/season/ -->
<g id="edge17" class="edge">
<title>modules/show/&#45;&gt;modules/season/</title>
<path fill="none" stroke="#000000" stroke-opacity="0.200000" d="M278.62,-69.52C286.84,-72.26 296,-75.31 304.58,-78.17"/>
<polygon fill="none" stroke="#000000" stroke-opacity="0.200000" points="304.04,-80.2 310.4,-80.11 305.37,-76.22 304.04,-80.2"/>
</g>
<!-- modules/showCollection/ -->
<g id="node12" class="node">
<title>modules/showCollection/</title>
<g id="a_node12"><a xlink:href="modules/showCollection/" xlink:title="showCollection">
<polygon fill="#ffffcc" stroke="black" points="194,-55.81 113,-55.81 111,-53.81 111,-37.81 192,-37.81 194,-39.81 194,-55.81"/>
<polyline fill="none" stroke="black" points="192,-53.81 111,-53.81 "/>
<polyline fill="none" stroke="black" points="192,-53.81 192,-37.81 "/>
<polyline fill="none" stroke="black" points="192,-53.81 194,-55.81 "/>
<text text-anchor="start" x="119" y="-44.61" font-family="Helvetica,sans-Serif" font-size="9.00">showCollection</text>
</a>
</g>
</g>
<!-- modules/showCollection/&#45;&gt;modules/auth/ -->
<g id="edge18" class="edge">
<title>modules/showCollection/&#45;&gt;modules/auth/</title>
<path fill="none" stroke="#000000" stroke-width="2" stroke-opacity="0.200000" d="M194.19,-41.55C248.18,-35.45 339.85,-28.4 367,-46.81 393.24,-64.6 401.86,-103.63 404.66,-125.39"/>
<polygon fill="#000000" fill-opacity="0.200000" stroke="#000000" stroke-width="2" stroke-opacity="0.200000" points="402.6,-125.82 405.36,-131.54 406.77,-125.35 402.6,-125.82"/>
</g>
<!-- modules/showCollection/&#45;&gt;modules/show/ -->
<g id="edge19" class="edge">
<title>modules/showCollection/&#45;&gt;modules/show/</title>
<path fill="none" stroke="#000000" stroke-opacity="0.200000" d="M194.07,-52.67C202.11,-53.83 210.43,-55.03 218.15,-56.14"/>
<polygon fill="none" stroke="#000000" stroke-opacity="0.200000" points="218.22,-58.27 224.46,-57.05 218.82,-54.12 218.22,-58.27"/>
</g>
<!-- modules/showReview/ -->
<g id="node13" class="node">
<title>modules/showReview/</title>
<g id="a_node13"><a xlink:href="modules/showReview/" xlink:title="showReview">
<polygon fill="#ffffcc" stroke="black" points="188,-99.81 119,-99.81 117,-97.81 117,-81.81 186,-81.81 188,-83.81 188,-99.81"/>
<polyline fill="none" stroke="black" points="186,-97.81 117,-97.81 "/>
<polyline fill="none" stroke="black" points="186,-97.81 186,-81.81 "/>
<polyline fill="none" stroke="black" points="186,-97.81 188,-99.81 "/>
<text text-anchor="start" x="125" y="-88.61" font-family="Helvetica,sans-Serif" font-size="9.00">showReview</text>
</a>
</g>
</g>
<!-- modules/showReview/&#45;&gt;modules/auth/ -->
<g id="edge20" class="edge">
<title>modules/showReview/&#45;&gt;modules/auth/</title>
<path fill="none" stroke="#000000" stroke-width="2" stroke-opacity="0.200000" d="M188.15,-87.6C216.83,-84.83 258.62,-80.53 295,-75.81 300.8,-75.06 302.17,-74.26 308,-73.81 334.15,-71.81 344.27,-60.74 367,-73.81 386.36,-84.95 397.01,-109.8 402.11,-125.91"/>
<polygon fill="#000000" fill-opacity="0.200000" stroke="#000000" stroke-width="2" stroke-opacity="0.200000" points="400.14,-126.65 403.85,-131.81 404.16,-125.46 400.14,-126.65"/>
</g>
<!-- modules/showReview/&#45;&gt;modules/review/ -->
<g id="edge22" class="edge">
<title>modules/showReview/&#45;&gt;modules/review/</title>
<path fill="none" stroke="#000000" stroke-opacity="0.200000" d="M184.73,-99.82C195.47,-102.93 207.52,-106.4 218.34,-109.53"/>
<polygon fill="none" stroke="#000000" stroke-opacity="0.200000" points="217.87,-111.58 224.21,-111.22 219.03,-107.54 217.87,-111.58"/>
</g>
<!-- modules/showReview/&#45;&gt;modules/show/ -->
<g id="edge21" class="edge">
<title>modules/showReview/&#45;&gt;modules/show/</title>
<path fill="none" stroke="#000000" stroke-opacity="0.200000" d="M182.6,-81.81C193.91,-78.31 206.91,-74.29 218.48,-70.71"/>
<polygon fill="none" stroke="#000000" stroke-opacity="0.200000" points="219.28,-72.67 224.39,-68.89 218.04,-68.65 219.28,-72.67"/>
</g>
<!-- modules/showWatchlist/ -->
<g id="node14" class="node">
<title>modules/showWatchlist/</title>
<g id="a_node14"><a xlink:href="modules/showWatchlist/" xlink:title="showWatchlist">
<polygon fill="#ffffcc" stroke="black" points="97,-55.81 18,-55.81 16,-53.81 16,-37.81 95,-37.81 97,-39.81 97,-55.81"/>
<polyline fill="none" stroke="black" points="95,-53.81 16,-53.81 "/>
<polyline fill="none" stroke="black" points="95,-53.81 95,-37.81 "/>
<polyline fill="none" stroke="black" points="95,-53.81 97,-55.81 "/>
<text text-anchor="start" x="24" y="-44.61" font-family="Helvetica,sans-Serif" font-size="9.00">showWatchlist</text>
</a>
</g>
</g>
<!-- modules/showWatchlist/&#45;&gt;modules/auth/ -->
<g id="edge25" class="edge">
<title>modules/showWatchlist/&#45;&gt;modules/auth/</title>
<path fill="none" stroke="#000000" stroke-width="2" stroke-opacity="0.200000" d="M78.72,-37.7C132.61,-16.13 276.84,31.69 367,-31.81 397.49,-53.28 404.27,-100.89 405.69,-125.47"/>
<polygon fill="#000000" fill-opacity="0.200000" stroke="#000000" stroke-width="2" stroke-opacity="0.200000" points="403.61,-125.85 405.97,-131.75 407.8,-125.66 403.61,-125.85"/>
</g>
<!-- modules/showWatchlist/&#45;&gt;modules/show/ -->
<g id="edge23" class="edge">
<title>modules/showWatchlist/&#45;&gt;modules/show/</title>
<path fill="none" stroke="#000000" stroke-width="2" stroke-opacity="0.200000" d="M83.63,-55.82C91.95,-58.27 101.27,-60.59 110,-61.81 146.83,-66.97 189.63,-65.63 218.22,-63.7"/>
<polygon fill="#000000" fill-opacity="0.200000" stroke="#000000" stroke-width="2" stroke-opacity="0.200000" points="218.62,-65.78 224.46,-63.26 218.32,-61.59 218.62,-65.78"/>
</g>
<!-- modules/showWatchlist/&#45;&gt;modules/showCollection/ -->
<g id="edge24" class="edge">
<title>modules/showWatchlist/&#45;&gt;modules/showCollection/</title>
<path fill="none" stroke="#000000" stroke-opacity="0.200000" d="M97.09,-46.81C99.49,-46.81 101.92,-46.81 104.34,-46.81"/>
<polygon fill="none" stroke="#000000" stroke-opacity="0.200000" points="104.75,-48.91 110.75,-46.81 104.75,-44.71 104.75,-48.91"/>
</g>
<!-- modules/watchlist/ -->
<g id="node15" class="node">
<title>modules/watchlist/</title>
<g id="a_node15"><a xlink:href="modules/watchlist/" xlink:title="watchlist">
<polygon fill="#ffffcc" stroke="black" points="280,-157.81 225,-157.81 223,-155.81 223,-139.81 278,-139.81 280,-141.81 280,-157.81"/>
<polyline fill="none" stroke="black" points="278,-155.81 223,-155.81 "/>
<polyline fill="none" stroke="black" points="278,-155.81 278,-139.81 "/>
<polyline fill="none" stroke="black" points="278,-155.81 280,-157.81 "/>
<text text-anchor="start" x="231" y="-146.61" font-family="Helvetica,sans-Serif" font-size="9.00">watchlist</text>
</a>
</g>
</g>
<!-- modules/watchlist/&#45;&gt;modules/auth/ -->
<g id="edge27" class="edge">
<title>modules/watchlist/&#45;&gt;modules/auth/</title>
<path fill="none" stroke="#000000" stroke-width="2" stroke-opacity="0.200000" d="M280.3,-147.36C306.64,-145.99 346.2,-143.93 373.88,-142.48"/>
<polygon fill="#000000" fill-opacity="0.200000" stroke="#000000" stroke-width="2" stroke-opacity="0.200000" points="374.06,-144.58 379.94,-142.17 373.84,-140.38 374.06,-144.58"/>
</g>
<!-- modules/watchlist/&#45;&gt;modules/user/ -->
<g id="edge28" class="edge">
<title>modules/watchlist/&#45;&gt;modules/user/</title>
<path fill="none" stroke="#000000" stroke-opacity="0.200000" d="M278.13,-139.8C283.7,-137.83 289.55,-135.76 295,-133.81 298.5,-132.56 302.17,-131.24 305.81,-129.93"/>
<polygon fill="none" stroke="#000000" stroke-opacity="0.200000" points="306.56,-131.89 311.49,-127.88 305.14,-127.94 306.56,-131.89"/>
</g>
</g>
</svg>
