<?xml version="1.0" encoding="UTF-8" standalone="no"?>
<!DOCTYPE svg PUBLIC "-//W3C//DTD SVG 1.1//EN"
 "http://www.w3.org/Graphics/SVG/1.1/DTD/svg11.dtd">
<!-- Generated by graphviz version 2.43.0 (0)
 -->
<!-- Title: dependency&#45;cruiser output Pages: 1 -->
<svg width="437pt" height="282pt"
 viewBox="0.00 0.00 437.00 281.99" xmlns="http://www.w3.org/2000/svg" xmlns:xlink="http://www.w3.org/1999/xlink">
<g id="graph0" class="graph" transform="scale(1 1) rotate(0) translate(4 277.99)">
<title>dependency&#45;cruiser output</title>
<polygon fill="white" stroke="transparent" points="-4,4 -4,-277.99 433,-277.99 433,4 -4,4"/>
<g id="clust1" class="cluster">
<title>cluster_modules</title>
<path fill="#ffffff" stroke="black" stroke-width="2" d="M20,-11.99C20,-11.99 409,-11.99 409,-11.99 415,-11.99 421,-17.99 421,-23.99 421,-23.99 421,-253.99 421,-253.99 421,-259.99 415,-265.99 409,-265.99 409,-265.99 20,-265.99 20,-265.99 14,-265.99 8,-259.99 8,-253.99 8,-253.99 8,-23.99 8,-23.99 8,-17.99 14,-11.99 20,-11.99"/>
<text text-anchor="middle" x="214.5" y="-254.79" font-family="Helvetica,sans-Serif" font-weight="bold" font-size="9.00">modules</text>
</g>
<!-- modules/auth/ -->
<g id="node1" class="node">
<title>modules/auth/</title>
<g id="a_node1"><a xlink:href="modules/auth/" xlink:title="auth">
<polygon fill="#ffffcc" stroke="black" points="413,-126.99 361,-126.99 359,-124.99 359,-108.99 411,-108.99 413,-110.99 413,-126.99"/>
<polyline fill="none" stroke="black" points="411,-124.99 359,-124.99 "/>
<polyline fill="none" stroke="black" points="411,-124.99 411,-108.99 "/>
<polyline fill="none" stroke="black" points="411,-124.99 413,-126.99 "/>
<text text-anchor="start" x="375" y="-115.79" font-family="Helvetica,sans-Serif" font-size="9.00">auth</text>
</a>
</g>
</g>
<!-- modules/company/ -->
<g id="node2" class="node">
<title>modules/company/</title>
<g id="a_node2"><a xlink:href="modules/company/" xlink:title="company">
<polygon fill="#ffffcc" stroke="black" points="346,-239.99 289,-239.99 287,-237.99 287,-221.99 344,-221.99 346,-223.99 346,-239.99"/>
<polyline fill="none" stroke="black" points="344,-237.99 287,-237.99 "/>
<polyline fill="none" stroke="black" points="344,-237.99 344,-221.99 "/>
<polyline fill="none" stroke="black" points="344,-237.99 346,-239.99 "/>
<text text-anchor="start" x="295" y="-228.79" font-family="Helvetica,sans-Serif" font-size="9.00">company</text>
</a>
</g>
</g>
<!-- modules/company/&#45;&gt;modules/auth/ -->
<g id="edge1" class="edge">
<title>modules/company/&#45;&gt;modules/auth/</title>
<path fill="none" stroke="#000000" stroke-width="2" stroke-opacity="0.200000" d="M335.71,-221.86C339.47,-219.37 343.14,-216.4 346,-212.99 366.17,-188.97 377.04,-153.09 381.86,-133"/>
<polygon fill="#000000" fill-opacity="0.200000" stroke="#000000" stroke-width="2" stroke-opacity="0.200000" points="383.93,-133.39 383.22,-127.07 379.83,-132.45 383.93,-133.39"/>
</g>
<!-- modules/movie/ -->
<g id="node3" class="node">
<title>modules/movie/</title>
<g id="a_node3"><a xlink:href="modules/movie/" xlink:title="movie">
<polygon fill="#ffffcc" stroke="black" points="343.5,-195.99 291.5,-195.99 289.5,-193.99 289.5,-177.99 341.5,-177.99 343.5,-179.99 343.5,-195.99"/>
<polyline fill="none" stroke="black" points="341.5,-193.99 289.5,-193.99 "/>
<polyline fill="none" stroke="black" points="341.5,-193.99 341.5,-177.99 "/>
<polyline fill="none" stroke="black" points="341.5,-193.99 343.5,-195.99 "/>
<text text-anchor="start" x="302.5" y="-184.79" font-family="Helvetica,sans-Serif" font-size="9.00">movie</text>
</a>
</g>
</g>
<!-- modules/movie/&#45;&gt;modules/auth/ -->
<g id="edge2" class="edge">
<title>modules/movie/&#45;&gt;modules/auth/</title>
<path fill="none" stroke="#000000" stroke-width="2" stroke-opacity="0.200000" d="M334.19,-177.84C338.26,-175.24 342.46,-172.23 346,-168.99 357.91,-158.11 368.82,-143.22 376.05,-132.35"/>
<polygon fill="#000000" fill-opacity="0.200000" stroke="#000000" stroke-width="2" stroke-opacity="0.200000" points="377.98,-133.24 379.49,-127.07 374.46,-130.95 377.98,-133.24"/>
</g>
<!-- modules/movieEntry/ -->
<g id="node4" class="node">
<title>modules/movieEntry/</title>
<g id="a_node4"><a xlink:href="modules/movieEntry/" xlink:title="movieEntry">
<polygon fill="#ffffcc" stroke="black" points="274,-225.99 208,-225.99 206,-223.99 206,-207.99 272,-207.99 274,-209.99 274,-225.99"/>
<polyline fill="none" stroke="black" points="272,-223.99 206,-223.99 "/>
<polyline fill="none" stroke="black" points="272,-223.99 272,-207.99 "/>
<polyline fill="none" stroke="black" points="272,-223.99 274,-225.99 "/>
<text text-anchor="start" x="214" y="-214.79" font-family="Helvetica,sans-Serif" font-size="9.00">movieEntry</text>
</a>
</g>
</g>
<!-- modules/movieEntry/&#45;&gt;modules/auth/ -->
<g id="edge4" class="edge">
<title>modules/movieEntry/&#45;&gt;modules/auth/</title>
<path fill="none" stroke="#000000" stroke-width="2" stroke-opacity="0.200000" d="M274.13,-215.66C300.54,-213.99 334.88,-210.26 346,-201.99 368.49,-185.28 378.44,-152.39 382.49,-133.09"/>
<polygon fill="#000000" fill-opacity="0.200000" stroke="#000000" stroke-width="2" stroke-opacity="0.200000" points="384.57,-133.41 383.65,-127.12 380.45,-132.61 384.57,-133.41"/>
</g>
<!-- modules/movieEntry/&#45;&gt;modules/movie/ -->
<g id="edge3" class="edge">
<title>modules/movieEntry/&#45;&gt;modules/movie/</title>
<path fill="none" stroke="#000000" stroke-opacity="0.200000" d="M263.35,-207.99C270.8,-205 279.19,-201.61 287.04,-198.46"/>
<polygon fill="none" stroke="#000000" stroke-opacity="0.200000" points="288.12,-200.28 292.91,-196.09 286.56,-196.39 288.12,-200.28"/>
</g>
<!-- modules/movieReview/ -->
<g id="node5" class="node">
<title>modules/movieReview/</title>
<g id="a_node5"><a xlink:href="modules/movieReview/" xlink:title="movieReview">
<polygon fill="#ffffcc" stroke="black" points="189,-190.99 116,-190.99 114,-188.99 114,-172.99 187,-172.99 189,-174.99 189,-190.99"/>
<polyline fill="none" stroke="black" points="187,-188.99 114,-188.99 "/>
<polyline fill="none" stroke="black" points="187,-188.99 187,-172.99 "/>
<polyline fill="none" stroke="black" points="187,-188.99 189,-190.99 "/>
<text text-anchor="start" x="122" y="-179.79" font-family="Helvetica,sans-Serif" font-size="9.00">movieReview</text>
</a>
</g>
</g>
<!-- modules/movieReview/&#45;&gt;modules/auth/ -->
<g id="edge5" class="edge">
<title>modules/movieReview/&#45;&gt;modules/auth/</title>
<path fill="none" stroke="#000000" stroke-width="2" stroke-opacity="0.200000" d="M189.07,-179.3C237.22,-175.31 318.96,-166.88 346,-153.99 356.88,-148.81 366.83,-139.52 373.95,-131.68"/>
<polygon fill="#000000" fill-opacity="0.200000" stroke="#000000" stroke-width="2" stroke-opacity="0.200000" points="375.65,-132.93 378.01,-127.03 372.48,-130.17 375.65,-132.93"/>
</g>
<!-- modules/movieReview/&#45;&gt;modules/movie/ -->
<g id="edge6" class="edge">
<title>modules/movieReview/&#45;&gt;modules/movie/</title>
<path fill="none" stroke="#000000" stroke-opacity="0.200000" d="M189.04,-184.23C194.72,-184.52 200.52,-184.79 206,-184.99 231.94,-185.96 261.35,-186.46 283.16,-186.72"/>
<polygon fill="none" stroke="#000000" stroke-opacity="0.200000" points="283.36,-188.83 289.39,-186.79 283.41,-184.63 283.36,-188.83"/>
</g>
<!-- modules/review/ -->
<g id="node6" class="node">
<title>modules/review/</title>
<g id="a_node6"><a xlink:href="modules/review/" xlink:title="review">
<polygon fill="#ffffcc" stroke="black" points="267,-139.99 215,-139.99 213,-137.99 213,-121.99 265,-121.99 267,-123.99 267,-139.99"/>
<polyline fill="none" stroke="black" points="265,-137.99 213,-137.99 "/>
<polyline fill="none" stroke="black" points="265,-137.99 265,-121.99 "/>
<polyline fill="none" stroke="black" points="265,-137.99 267,-139.99 "/>
<text text-anchor="start" x="225" y="-128.79" font-family="Helvetica,sans-Serif" font-size="9.00">review</text>
</a>
</g>
</g>
<!-- modules/movieReview/&#45;&gt;modules/review/ -->
<g id="edge7" class="edge">
<title>modules/movieReview/&#45;&gt;modules/review/</title>
<path fill="none" stroke="#000000" stroke-opacity="0.200000" d="M180.46,-172.94C184.76,-171.18 189.07,-169.19 193,-166.99 204.14,-160.77 215.45,-151.96 224.07,-144.62"/>
<polygon fill="none" stroke="#000000" stroke-opacity="0.200000" points="225.91,-145.79 229.06,-140.27 223.15,-142.63 225.91,-145.79"/>
</g>
<!-- modules/user/ -->
<g id="node7" class="node">
<title>modules/user/</title>
<g id="a_node7"><a xlink:href="modules/user/" xlink:title="user">
<polygon fill="#ffffcc" stroke="black" points="343.5,-93.99 291.5,-93.99 289.5,-91.99 289.5,-75.99 341.5,-75.99 343.5,-77.99 343.5,-93.99"/>
<polyline fill="none" stroke="black" points="341.5,-91.99 289.5,-91.99 "/>
<polyline fill="none" stroke="black" points="341.5,-91.99 341.5,-75.99 "/>
<polyline fill="none" stroke="black" points="341.5,-91.99 343.5,-93.99 "/>
<text text-anchor="start" x="306.5" y="-82.79" font-family="Helvetica,sans-Serif" font-size="9.00">user</text>
</a>
</g>
</g>
<!-- modules/review/&#45;&gt;modules/user/ -->
<g id="edge8" class="edge">
<title>modules/review/&#45;&gt;modules/user/</title>
<path fill="none" stroke="#000000" stroke-opacity="0.200000" d="M255.72,-121.91C267.15,-114.85 283.11,-105 295.66,-97.24"/>
<polygon fill="none" stroke="#000000" stroke-opacity="0.200000" points="296.81,-99 300.81,-94.06 294.6,-95.43 296.81,-99"/>
</g>
<!-- modules/user/&#45;&gt;modules/auth/ -->
<g id="edge23" class="edge">
<title>modules/user/&#45;&gt;modules/auth/</title>
<path fill="none" stroke="#000000" stroke-width="2" stroke-opacity="0.200000" d="M335.94,-94.01C343.68,-97.8 352.78,-102.24 361.03,-106.28"/>
<polygon fill="#000000" fill-opacity="0.200000" stroke="#000000" stroke-width="2" stroke-opacity="0.200000" points="360.26,-108.24 366.58,-108.99 362.11,-104.47 360.26,-108.24"/>
</g>
<!-- modules/season/ -->
<g id="node8" class="node">
<title>modules/season/</title>
<g id="a_node8"><a xlink:href="modules/season/" xlink:title="season">
<polygon fill="#ffffcc" stroke="black" points="343.5,-137.99 291.5,-137.99 289.5,-135.99 289.5,-119.99 341.5,-119.99 343.5,-121.99 343.5,-137.99"/>
<polyline fill="none" stroke="black" points="341.5,-135.99 289.5,-135.99 "/>
<polyline fill="none" stroke="black" points="341.5,-135.99 341.5,-119.99 "/>
<polyline fill="none" stroke="black" points="341.5,-135.99 343.5,-137.99 "/>
<text text-anchor="start" x="301" y="-126.79" font-family="Helvetica,sans-Serif" font-size="9.00">season</text>
</a>
</g>
</g>
<!-- modules/season/&#45;&gt;modules/auth/ -->
<g id="edge9" class="edge">
<title>modules/season/&#45;&gt;modules/auth/</title>
<path fill="none" stroke="#000000" stroke-width="2" stroke-opacity="0.200000" d="M343.79,-124.71C346.69,-124.24 349.67,-123.75 352.63,-123.27"/>
<polygon fill="#000000" fill-opacity="0.200000" stroke="#000000" stroke-width="2" stroke-opacity="0.200000" points="353.09,-125.32 358.67,-122.29 352.41,-121.18 353.09,-125.32"/>
</g>
<!-- modules/seasonReview/ -->
<g id="node9" class="node">
<title>modules/seasonReview/</title>
<g id="a_node9"><a xlink:href="modules/seasonReview/" xlink:title="seasonReview">
<polygon fill="#ffffcc" stroke="black" points="191,-160.99 114,-160.99 112,-158.99 112,-142.99 189,-142.99 191,-144.99 191,-160.99"/>
<polyline fill="none" stroke="black" points="189,-158.99 112,-158.99 "/>
<polyline fill="none" stroke="black" points="189,-158.99 189,-142.99 "/>
<polyline fill="none" stroke="black" points="189,-158.99 191,-160.99 "/>
<text text-anchor="start" x="120" y="-149.79" font-family="Helvetica,sans-Serif" font-size="9.00">seasonReview</text>
</a>
</g>
</g>
<!-- modules/seasonReview/&#45;&gt;modules/auth/ -->
<g id="edge10" class="edge">
<title>modules/seasonReview/&#45;&gt;modules/auth/</title>
<path fill="none" stroke="#000000" stroke-width="2" stroke-opacity="0.200000" d="M191.33,-157.27C231.42,-161.16 295.11,-162.93 346,-143.99 354.27,-140.92 362.52,-135.79 369.3,-130.89"/>
<polygon fill="#000000" fill-opacity="0.200000" stroke="#000000" stroke-width="2" stroke-opacity="0.200000" points="370.63,-132.52 374.16,-127.23 368.11,-129.16 370.63,-132.52"/>
</g>
<!-- modules/seasonReview/&#45;&gt;modules/review/ -->
<g id="edge12" class="edge">
<title>modules/seasonReview/&#45;&gt;modules/review/</title>
<path fill="none" stroke="#000000" stroke-opacity="0.200000" d="M189.69,-142.97C195.4,-141.58 201.26,-140.16 206.86,-138.8"/>
<polygon fill="none" stroke="#000000" stroke-opacity="0.200000" points="207.47,-140.81 212.81,-137.35 206.48,-136.73 207.47,-140.81"/>
</g>
<!-- modules/seasonReview/&#45;&gt;modules/season/ -->
<g id="edge11" class="edge">
<title>modules/seasonReview/&#45;&gt;modules/season/</title>
<path fill="none" stroke="#000000" stroke-opacity="0.200000" d="M191.25,-153.4C215.34,-153.46 246.79,-152.05 274,-145.99 279.8,-144.7 285.84,-142.67 291.45,-140.45"/>
<polygon fill="none" stroke="#000000" stroke-opacity="0.200000" points="292.61,-142.24 297.34,-138 291,-138.36 292.61,-142.24"/>
</g>
<!-- modules/show/ -->
<g id="node10" class="node">
<title>modules/show/</title>
<g id="a_node10"><a xlink:href="modules/show/" xlink:title="show">
<polygon fill="#ffffcc" stroke="black" points="267,-95.99 215,-95.99 213,-93.99 213,-77.99 265,-77.99 267,-79.99 267,-95.99"/>
<polyline fill="none" stroke="black" points="265,-93.99 213,-93.99 "/>
<polyline fill="none" stroke="black" points="265,-93.99 265,-77.99 "/>
<polyline fill="none" stroke="black" points="265,-93.99 267,-95.99 "/>
<text text-anchor="start" x="228" y="-84.79" font-family="Helvetica,sans-Serif" font-size="9.00">show</text>
</a>
</g>
</g>
<!-- modules/show/&#45;&gt;modules/auth/ -->
<g id="edge13" class="edge">
<title>modules/show/&#45;&gt;modules/auth/</title>
<path fill="none" stroke="#000000" stroke-width="2" stroke-opacity="0.200000" d="M258.99,-77.96C280.65,-68.43 317.65,-56.5 346,-69.99 360.37,-76.83 371.17,-91.83 377.72,-103.26"/>
<polygon fill="#000000" fill-opacity="0.200000" stroke="#000000" stroke-width="2" stroke-opacity="0.200000" points="376.04,-104.58 380.75,-108.85 379.73,-102.57 376.04,-104.58"/>
</g>
<!-- modules/show/&#45;&gt;modules/season/ -->
<g id="edge14" class="edge">
<title>modules/show/&#45;&gt;modules/season/</title>
<path fill="none" stroke="#000000" stroke-opacity="0.200000" d="M257.17,-96.11C267.9,-102.16 282.13,-110.18 293.84,-116.79"/>
<polygon fill="none" stroke="#000000" stroke-opacity="0.200000" points="293.11,-118.78 299.37,-119.9 295.17,-115.12 293.11,-118.78"/>
</g>
<!-- modules/showCollection/ -->
<g id="node11" class="node">
<title>modules/showCollection/</title>
<g id="a_node11"><a xlink:href="modules/showCollection/" xlink:title="showCollection">
<polygon fill="#ffffcc" stroke="black" points="193,-62.99 112,-62.99 110,-60.99 110,-44.99 191,-44.99 193,-46.99 193,-62.99"/>
<polyline fill="none" stroke="black" points="191,-60.99 110,-60.99 "/>
<polyline fill="none" stroke="black" points="191,-60.99 191,-44.99 "/>
<polyline fill="none" stroke="black" points="191,-60.99 193,-62.99 "/>
<text text-anchor="start" x="118" y="-51.79" font-family="Helvetica,sans-Serif" font-size="9.00">showCollection</text>
</a>
</g>
</g>
<!-- modules/showCollection/&#45;&gt;modules/auth/ -->
<g id="edge15" class="edge">
<title>modules/showCollection/&#45;&gt;modules/auth/</title>
<path fill="none" stroke="#000000" stroke-width="2" stroke-opacity="0.200000" d="M176.46,-44.91C215.39,-31.8 293.32,-12.6 346,-45.99 366.14,-58.76 376.63,-85.71 381.47,-102.77"/>
<polygon fill="#000000" fill-opacity="0.200000" stroke="#000000" stroke-width="2" stroke-opacity="0.200000" points="379.55,-103.72 383.11,-108.99 383.61,-102.65 379.55,-103.72"/>
</g>
<!-- modules/showCollection/&#45;&gt;modules/show/ -->
<g id="edge16" class="edge">
<title>modules/showCollection/&#45;&gt;modules/show/</title>
<path fill="none" stroke="#000000" stroke-opacity="0.200000" d="M176.14,-63.01C186.43,-66.94 198.62,-71.59 209.5,-75.74"/>
<polygon fill="none" stroke="#000000" stroke-opacity="0.200000" points="209.04,-77.81 215.39,-77.99 210.53,-73.89 209.04,-77.81"/>
</g>
<!-- modules/showReview/ -->
<g id="node12" class="node">
<title>modules/showReview/</title>
<g id="a_node12"><a xlink:href="modules/showReview/" xlink:title="showReview">
<polygon fill="#ffffcc" stroke="black" points="187,-117.99 118,-117.99 116,-115.99 116,-99.99 185,-99.99 187,-101.99 187,-117.99"/>
<polyline fill="none" stroke="black" points="185,-115.99 116,-115.99 "/>
<polyline fill="none" stroke="black" points="185,-115.99 185,-99.99 "/>
<polyline fill="none" stroke="black" points="185,-115.99 187,-117.99 "/>
<text text-anchor="start" x="124" y="-106.79" font-family="Helvetica,sans-Serif" font-size="9.00">showReview</text>
</a>
</g>
</g>
<!-- modules/showReview/&#45;&gt;modules/auth/ -->
<g id="edge17" class="edge">
<title>modules/showReview/&#45;&gt;modules/auth/</title>
<path fill="none" stroke="#000000" stroke-width="2" stroke-opacity="0.200000" d="M187.14,-109.09C225.89,-109.39 290.5,-110.44 346,-113.99 348.04,-114.13 350.13,-114.28 352.25,-114.45"/>
<polygon fill="#000000" fill-opacity="0.200000" stroke="#000000" stroke-width="2" stroke-opacity="0.200000" points="352.43,-116.58 358.59,-115.01 352.8,-112.39 352.43,-116.58"/>
</g>
<!-- modules/showReview/&#45;&gt;modules/review/ -->
<g id="edge19" class="edge">
<title>modules/showReview/&#45;&gt;modules/review/</title>
<path fill="none" stroke="#000000" stroke-opacity="0.200000" d="M187.18,-117.82C193.6,-119.45 200.28,-121.15 206.62,-122.76"/>
<polygon fill="none" stroke="#000000" stroke-opacity="0.200000" points="206.5,-124.9 212.83,-124.34 207.54,-120.83 206.5,-124.9"/>
</g>
<!-- modules/showReview/&#45;&gt;modules/show/ -->
<g id="edge18" class="edge">
<title>modules/showReview/&#45;&gt;modules/show/</title>
<path fill="none" stroke="#000000" stroke-opacity="0.200000" d="M187.18,-100.17C193.6,-98.54 200.28,-96.84 206.62,-95.23"/>
<polygon fill="none" stroke="#000000" stroke-opacity="0.200000" points="207.54,-97.16 212.83,-93.65 206.5,-93.09 207.54,-97.16"/>
</g>
<!-- modules/showWatchlist/ -->
<g id="node13" class="node">
<title>modules/showWatchlist/</title>
<g id="a_node13"><a xlink:href="modules/showWatchlist/" xlink:title="showWatchlist">
<polygon fill="#ffffcc" stroke="black" points="97,-62.99 18,-62.99 16,-60.99 16,-44.99 95,-44.99 97,-46.99 97,-62.99"/>
<polyline fill="none" stroke="black" points="95,-60.99 16,-60.99 "/>
<polyline fill="none" stroke="black" points="95,-60.99 95,-44.99 "/>
<polyline fill="none" stroke="black" points="95,-60.99 97,-62.99 "/>
<text text-anchor="start" x="24" y="-51.79" font-family="Helvetica,sans-Serif" font-size="9.00">showWatchlist</text>
</a>
</g>
</g>
<!-- modules/showWatchlist/&#45;&gt;modules/auth/ -->
<g id="edge22" class="edge">
<title>modules/showWatchlist/&#45;&gt;modules/auth/</title>
<path fill="none" stroke="#000000" stroke-width="2" stroke-opacity="0.200000" d="M75.62,-44.99C124.12,-22.28 259.15,31.52 346,-25.99 371.95,-43.18 380.68,-81.47 383.59,-102.84"/>
<polygon fill="#000000" fill-opacity="0.200000" stroke="#000000" stroke-width="2" stroke-opacity="0.200000" points="381.51,-103.18 384.31,-108.89 385.68,-102.68 381.51,-103.18"/>
</g>
<!-- modules/showWatchlist/&#45;&gt;modules/show/ -->
<g id="edge20" class="edge">
<title>modules/showWatchlist/&#45;&gt;modules/show/</title>
<path fill="none" stroke="#000000" stroke-width="2" stroke-opacity="0.200000" d="M86.48,-63.06C94.08,-65.22 102.3,-67.37 110,-68.99 142.57,-75.88 180.33,-80.8 206.55,-83.74"/>
<polygon fill="#000000" fill-opacity="0.200000" stroke="#000000" stroke-width="2" stroke-opacity="0.200000" points="206.43,-85.84 212.62,-84.41 206.89,-81.66 206.43,-85.84"/>
</g>
<!-- modules/showWatchlist/&#45;&gt;modules/showCollection/ -->
<g id="edge21" class="edge">
<title>modules/showWatchlist/&#45;&gt;modules/showCollection/</title>
<path fill="none" stroke="#000000" stroke-opacity="0.200000" d="M97.21,-53.99C99.28,-53.99 101.38,-53.99 103.47,-53.99"/>
<polygon fill="none" stroke="#000000" stroke-opacity="0.200000" points="103.74,-56.09 109.74,-53.99 103.74,-51.89 103.74,-56.09"/>
</g>
<!-- modules/watchlist/ -->
<g id="node14" class="node">
<title>modules/watchlist/</title>
<g id="a_node14"><a xlink:href="modules/watchlist/" xlink:title="watchlist">
<polygon fill="#ffffcc" stroke="black" points="268.5,-65.99 213.5,-65.99 211.5,-63.99 211.5,-47.99 266.5,-47.99 268.5,-49.99 268.5,-65.99"/>
<polyline fill="none" stroke="black" points="266.5,-63.99 211.5,-63.99 "/>
<polyline fill="none" stroke="black" points="266.5,-63.99 266.5,-47.99 "/>
<polyline fill="none" stroke="black" points="266.5,-63.99 268.5,-65.99 "/>
<text text-anchor="start" x="219.5" y="-54.79" font-family="Helvetica,sans-Serif" font-size="9.00">watchlist</text>
</a>
</g>
</g>
<!-- modules/watchlist/&#45;&gt;modules/auth/ -->
<g id="edge24" class="edge">
<title>modules/watchlist/&#45;&gt;modules/auth/</title>
<path fill="none" stroke="#000000" stroke-width="2" stroke-opacity="0.200000" d="M268.67,-51.19C290.96,-48 322.36,-46.97 346,-59.99 362.77,-69.24 373.69,-89.13 379.59,-103.03"/>
<polygon fill="#000000" fill-opacity="0.200000" stroke="#000000" stroke-width="2" stroke-opacity="0.200000" points="377.78,-104.14 381.96,-108.93 381.68,-102.58 377.78,-104.14"/>
</g>
<!-- modules/watchlist/&#45;&gt;modules/user/ -->
<g id="edge25" class="edge">
<title>modules/watchlist/&#45;&gt;modules/user/</title>
<path fill="none" stroke="#000000" stroke-opacity="0.200000" d="M264.98,-66.01C271.56,-68.48 278.78,-71.19 285.64,-73.77"/>
<polygon fill="none" stroke="#000000" stroke-opacity="0.200000" points="284.95,-75.76 291.31,-75.9 286.43,-71.83 284.95,-75.76"/>
</g>
</g>
</svg>
