<?xml version="1.0" encoding="UTF-8" standalone="no"?>
<!DOCTYPE svg PUBLIC "-//W3C//DTD SVG 1.1//EN"
 "http://www.w3.org/Graphics/SVG/1.1/DTD/svg11.dtd">
<!-- Generated by graphviz version 2.43.0 (0)
 -->
<!-- Title: dependency&#45;cruiser output Pages: 1 -->
<svg width="266pt" height="316pt"
 viewBox="0.00 0.00 266.00 316.00" xmlns="http://www.w3.org/2000/svg" xmlns:xlink="http://www.w3.org/1999/xlink">
<g id="graph0" class="graph" transform="scale(1 1) rotate(0) translate(4 312)">
<title>dependency&#45;cruiser output</title>
<polygon fill="white" stroke="transparent" points="-4,4 -4,-312 262,-312 262,4 -4,4"/>
<g id="clust1" class="cluster">
<title>cluster_modules</title>
<path fill="#ffffff" stroke="black" stroke-width="2" d="M20,-8C20,-8 238,-8 238,-8 244,-8 250,-14 250,-20 250,-20 250,-288 250,-288 250,-294 244,-300 238,-300 238,-300 20,-300 20,-300 14,-300 8,-294 8,-288 8,-288 8,-20 8,-20 8,-14 14,-8 20,-8"/>
<text text-anchor="middle" x="129" y="-288.8" font-family="Helvetica,sans-Serif" font-weight="bold" font-size="9.00">modules</text>
</g>
<!-- modules/auth/ -->
<g id="node1" class="node">
<title>modules/auth/</title>
<g id="a_node1"><a xlink:href="modules/auth/" xlink:title="auth">
<polygon fill="#ffffcc" stroke="black" points="242,-154 190,-154 188,-152 188,-136 240,-136 242,-138 242,-154"/>
<polyline fill="none" stroke="black" points="240,-152 188,-152 "/>
<polyline fill="none" stroke="black" points="240,-152 240,-136 "/>
<polyline fill="none" stroke="black" points="240,-152 242,-154 "/>
<text text-anchor="start" x="204" y="-142.8" font-family="Helvetica,sans-Serif" font-size="9.00">auth</text>
</a>
</g>
</g>
<!-- modules/company/ -->
<g id="node2" class="node">
<title>modules/company/</title>
<g id="a_node2"><a xlink:href="modules/company/" xlink:title="company">
<polygon fill="#ffffcc" stroke="black" points="175,-154 118,-154 116,-152 116,-136 173,-136 175,-138 175,-154"/>
<polyline fill="none" stroke="black" points="173,-152 116,-152 "/>
<polyline fill="none" stroke="black" points="173,-152 173,-136 "/>
<polyline fill="none" stroke="black" points="173,-152 175,-154 "/>
<text text-anchor="start" x="124" y="-142.8" font-family="Helvetica,sans-Serif" font-size="9.00">company</text>
</a>
</g>
</g>
<!-- modules/company/&#45;&gt;modules/auth/ -->
<g id="edge1" class="edge">
<title>modules/company/&#45;&gt;modules/auth/</title>
<path fill="none" stroke="#000000" stroke-width="2" stroke-opacity="0.200000" d="M175.13,-145C177.21,-145 179.32,-145 181.43,-145"/>
<polygon fill="#000000" fill-opacity="0.200000" stroke="#000000" stroke-width="2" stroke-opacity="0.200000" points="181.69,-147.1 187.69,-145 181.69,-142.9 181.69,-147.1"/>
</g>
<!-- modules/meta/ -->
<g id="node3" class="node">
<title>modules/meta/</title>
<g id="a_node3"><a xlink:href="modules/meta/" xlink:title="meta">
<polygon fill="#ffffcc" stroke="black" points="86.5,-274 34.5,-274 32.5,-272 32.5,-256 84.5,-256 86.5,-258 86.5,-274"/>
<polyline fill="none" stroke="black" points="84.5,-272 32.5,-272 "/>
<polyline fill="none" stroke="black" points="84.5,-272 84.5,-256 "/>
<polyline fill="none" stroke="black" points="84.5,-272 86.5,-274 "/>
<text text-anchor="start" x="47.5" y="-262.8" font-family="Helvetica,sans-Serif" font-size="9.00">meta</text>
</a>
</g>
</g>
<!-- modules/movie/ -->
<g id="node4" class="node">
<title>modules/movie/</title>
<g id="a_node4"><a xlink:href="modules/movie/" xlink:title="movie">
<polygon fill="#ffffcc" stroke="black" points="172.5,-198 120.5,-198 118.5,-196 118.5,-180 170.5,-180 172.5,-182 172.5,-198"/>
<polyline fill="none" stroke="black" points="170.5,-196 118.5,-196 "/>
<polyline fill="none" stroke="black" points="170.5,-196 170.5,-180 "/>
<polyline fill="none" stroke="black" points="170.5,-196 172.5,-198 "/>
<text text-anchor="start" x="131.5" y="-186.8" font-family="Helvetica,sans-Serif" font-size="9.00">movie</text>
</a>
</g>
</g>
<!-- modules/movie/&#45;&gt;modules/auth/ -->
<g id="edge2" class="edge">
<title>modules/movie/&#45;&gt;modules/auth/</title>
<path fill="none" stroke="#000000" stroke-width="2" stroke-opacity="0.200000" d="M161.04,-179.91C165.53,-177.08 170.48,-173.93 175,-171 181.61,-166.71 188.81,-161.94 195.19,-157.67"/>
<polygon fill="#000000" fill-opacity="0.200000" stroke="#000000" stroke-width="2" stroke-opacity="0.200000" points="196.52,-159.31 200.34,-154.23 194.18,-155.82 196.52,-159.31"/>
</g>
<!-- modules/movieCollection/ -->
<g id="node5" class="node">
<title>modules/movieCollection/</title>
<g id="a_node5"><a xlink:href="modules/movieCollection/" xlink:title="movieCollection">
<polygon fill="#ffffcc" stroke="black" points="103,-244 18,-244 16,-242 16,-226 101,-226 103,-228 103,-244"/>
<polyline fill="none" stroke="black" points="101,-242 16,-242 "/>
<polyline fill="none" stroke="black" points="101,-242 101,-226 "/>
<polyline fill="none" stroke="black" points="101,-242 103,-244 "/>
<text text-anchor="start" x="24" y="-232.8" font-family="Helvetica,sans-Serif" font-size="9.00">movieCollection</text>
</a>
</g>
</g>
<!-- modules/movieCollection/&#45;&gt;modules/auth/ -->
<g id="edge3" class="edge">
<title>modules/movieCollection/&#45;&gt;modules/auth/</title>
<path fill="none" stroke="#000000" stroke-width="2" stroke-opacity="0.200000" d="M95.41,-244.01C119.7,-248.19 151.77,-249.33 175,-234 200.03,-217.48 209.1,-180.99 212.31,-160.23"/>
<polygon fill="#000000" fill-opacity="0.200000" stroke="#000000" stroke-width="2" stroke-opacity="0.200000" points="214.42,-160.32 213.16,-154.09 210.26,-159.74 214.42,-160.32"/>
</g>
<!-- modules/movieCollection/&#45;&gt;modules/movie/ -->
<g id="edge4" class="edge">
<title>modules/movieCollection/&#45;&gt;modules/movie/</title>
<path fill="none" stroke="#000000" stroke-opacity="0.200000" d="M92.56,-225.87C96.23,-224.2 99.8,-222.25 103,-220 110.49,-214.72 108.91,-209.81 116,-204 117.17,-203.04 118.42,-202.11 119.71,-201.23"/>
<polygon fill="none" stroke="#000000" stroke-opacity="0.200000" points="120.87,-202.98 124.82,-198 118.63,-199.42 120.87,-202.98"/>
</g>
<!-- modules/movieReview/ -->
<g id="node6" class="node">
<title>modules/movieReview/</title>
<g id="a_node6"><a xlink:href="modules/movieReview/" xlink:title="movieReview">
<polygon fill="#ffffcc" stroke="black" points="97,-184 24,-184 22,-182 22,-166 95,-166 97,-168 97,-184"/>
<polyline fill="none" stroke="black" points="95,-182 22,-182 "/>
<polyline fill="none" stroke="black" points="95,-182 95,-166 "/>
<polyline fill="none" stroke="black" points="95,-182 97,-184 "/>
<text text-anchor="start" x="30" y="-172.8" font-family="Helvetica,sans-Serif" font-size="9.00">movieReview</text>
</a>
</g>
</g>
<!-- modules/movieReview/&#45;&gt;modules/auth/ -->
<g id="edge5" class="edge">
<title>modules/movieReview/&#45;&gt;modules/auth/</title>
<path fill="none" stroke="#000000" stroke-width="2" stroke-opacity="0.200000" d="M97.01,-172.44C119.71,-170.3 149.35,-166.51 175,-160 179.06,-158.97 183.28,-157.64 187.37,-156.2"/>
<polygon fill="#000000" fill-opacity="0.200000" stroke="#000000" stroke-width="2" stroke-opacity="0.200000" points="188.35,-158.08 193.25,-154.03 186.89,-154.14 188.35,-158.08"/>
</g>
<!-- modules/movieReview/&#45;&gt;modules/company/ -->
<g id="edge6" class="edge">
<title>modules/movieReview/&#45;&gt;modules/company/</title>
<path fill="none" stroke="#000000" stroke-opacity="0.200000" d="M86.13,-165.99C91.7,-164.02 97.55,-161.95 103,-160 106.5,-158.75 110.17,-157.43 113.81,-156.12"/>
<polygon fill="none" stroke="#000000" stroke-opacity="0.200000" points="114.56,-158.08 119.49,-154.07 113.14,-154.13 114.56,-158.08"/>
</g>
<!-- modules/movieReview/&#45;&gt;modules/movie/ -->
<g id="edge7" class="edge">
<title>modules/movieReview/&#45;&gt;modules/movie/</title>
<path fill="none" stroke="#000000" stroke-opacity="0.200000" d="M97.1,-181.1C102.07,-181.93 107.15,-182.77 112.04,-183.59"/>
<polygon fill="none" stroke="#000000" stroke-opacity="0.200000" points="111.86,-185.69 118.12,-184.6 112.55,-181.55 111.86,-185.69"/>
</g>
<!-- modules/movieWatchlist/ -->
<g id="node7" class="node">
<title>modules/movieWatchlist/</title>
<g id="a_node7"><a xlink:href="modules/movieWatchlist/" xlink:title="movieWatchlist">
<polygon fill="#ffffcc" stroke="black" points="102,-214 19,-214 17,-212 17,-196 100,-196 102,-198 102,-214"/>
<polyline fill="none" stroke="black" points="100,-212 17,-212 "/>
<polyline fill="none" stroke="black" points="100,-212 100,-196 "/>
<polyline fill="none" stroke="black" points="100,-212 102,-214 "/>
<text text-anchor="start" x="25" y="-202.8" font-family="Helvetica,sans-Serif" font-size="9.00">movieWatchlist</text>
</a>
</g>
</g>
<!-- modules/movieWatchlist/&#45;&gt;modules/movie/ -->
<g id="edge8" class="edge">
<title>modules/movieWatchlist/&#45;&gt;modules/movie/</title>
<path fill="none" stroke="#000000" stroke-opacity="0.200000" d="M102.01,-197.09C105.33,-196.46 108.66,-195.83 111.91,-195.21"/>
<polygon fill="none" stroke="#000000" stroke-opacity="0.200000" points="112.54,-197.23 118.04,-194.04 111.75,-193.1 112.54,-197.23"/>
</g>
<!-- modules/review/ -->
<g id="node8" class="node">
<title>modules/review/</title>
<g id="a_node8"><a xlink:href="modules/review/" xlink:title="review">
<polygon fill="#ffffcc" stroke="black" points="86.5,-154 34.5,-154 32.5,-152 32.5,-136 84.5,-136 86.5,-138 86.5,-154"/>
<polyline fill="none" stroke="black" points="84.5,-152 32.5,-152 "/>
<polyline fill="none" stroke="black" points="84.5,-152 84.5,-136 "/>
<polyline fill="none" stroke="black" points="84.5,-152 86.5,-154 "/>
<text text-anchor="start" x="44.5" y="-142.8" font-family="Helvetica,sans-Serif" font-size="9.00">review</text>
</a>
</g>
</g>
<!-- modules/review/&#45;&gt;modules/company/ -->
<g id="edge9" class="edge">
<title>modules/review/&#45;&gt;modules/company/</title>
<path fill="none" stroke="#000000" stroke-opacity="0.200000" d="M86.62,-145C93.84,-145 101.8,-145 109.44,-145"/>
<polygon fill="none" stroke="#000000" stroke-opacity="0.200000" points="109.77,-147.1 115.77,-145 109.77,-142.9 109.77,-147.1"/>
</g>
<!-- modules/season/ -->
<g id="node9" class="node">
<title>modules/season/</title>
<g id="a_node9"><a xlink:href="modules/season/" xlink:title="season">
<polygon fill="#ffffcc" stroke="black" points="172.5,-124 120.5,-124 118.5,-122 118.5,-106 170.5,-106 172.5,-108 172.5,-124"/>
<polyline fill="none" stroke="black" points="170.5,-122 118.5,-122 "/>
<polyline fill="none" stroke="black" points="170.5,-122 170.5,-106 "/>
<polyline fill="none" stroke="black" points="170.5,-122 172.5,-124 "/>
<text text-anchor="start" x="130" y="-112.8" font-family="Helvetica,sans-Serif" font-size="9.00">season</text>
</a>
</g>
</g>
<!-- modules/seasonReview/ -->
<g id="node10" class="node">
<title>modules/seasonReview/</title>
<g id="a_node10"><a xlink:href="modules/seasonReview/" xlink:title="seasonReview">
<polygon fill="#ffffcc" stroke="black" points="99,-124 22,-124 20,-122 20,-106 97,-106 99,-108 99,-124"/>
<polyline fill="none" stroke="black" points="97,-122 20,-122 "/>
<polyline fill="none" stroke="black" points="97,-122 97,-106 "/>
<polyline fill="none" stroke="black" points="97,-122 99,-124 "/>
<text text-anchor="start" x="28" y="-112.8" font-family="Helvetica,sans-Serif" font-size="9.00">seasonReview</text>
</a>
</g>
</g>
<!-- modules/seasonReview/&#45;&gt;modules/auth/ -->
<g id="edge10" class="edge">
<title>modules/seasonReview/&#45;&gt;modules/auth/</title>
<path fill="none" stroke="#000000" stroke-width="2" stroke-opacity="0.200000" d="M88.16,-105.99C96.96,-103.54 106.8,-101.22 116,-100 141.99,-96.55 151.15,-89.11 175,-100 188.61,-106.22 199.3,-119.79 206.02,-130.42"/>
<polygon fill="#000000" fill-opacity="0.200000" stroke="#000000" stroke-width="2" stroke-opacity="0.200000" points="204.27,-131.59 209.17,-135.65 207.87,-129.42 204.27,-131.59"/>
</g>
<!-- modules/seasonReview/&#45;&gt;modules/company/ -->
<g id="edge11" class="edge">
<title>modules/seasonReview/&#45;&gt;modules/company/</title>
<path fill="none" stroke="#000000" stroke-opacity="0.200000" d="M86.13,-124.01C91.7,-125.98 97.55,-128.05 103,-130 106.5,-131.25 110.17,-132.57 113.81,-133.88"/>
<polygon fill="none" stroke="#000000" stroke-opacity="0.200000" points="113.14,-135.87 119.49,-135.93 114.56,-131.92 113.14,-135.87"/>
</g>
<!-- modules/seasonReview/&#45;&gt;modules/season/ -->
<g id="edge12" class="edge">
<title>modules/seasonReview/&#45;&gt;modules/season/</title>
<path fill="none" stroke="#000000" stroke-opacity="0.200000" d="M99.06,-115C103.46,-115 107.92,-115 112.23,-115"/>
<polygon fill="none" stroke="#000000" stroke-opacity="0.200000" points="112.42,-117.1 118.42,-115 112.42,-112.9 112.42,-117.1"/>
</g>
<!-- modules/show/ -->
<g id="node11" class="node">
<title>modules/show/</title>
<g id="a_node11"><a xlink:href="modules/show/" xlink:title="show">
<polygon fill="#ffffcc" stroke="black" points="172.5,-65 120.5,-65 118.5,-63 118.5,-47 170.5,-47 172.5,-49 172.5,-65"/>
<polyline fill="none" stroke="black" points="170.5,-63 118.5,-63 "/>
<polyline fill="none" stroke="black" points="170.5,-63 170.5,-47 "/>
<polyline fill="none" stroke="black" points="170.5,-63 172.5,-65 "/>
<text text-anchor="start" x="133.5" y="-53.8" font-family="Helvetica,sans-Serif" font-size="9.00">show</text>
</a>
</g>
</g>
<!-- modules/show/&#45;&gt;modules/auth/ -->
<g id="edge13" class="edge">
<title>modules/show/&#45;&gt;modules/auth/</title>
<path fill="none" stroke="#000000" stroke-width="2" stroke-opacity="0.200000" d="M162.92,-65.04C167.18,-67.87 171.53,-71.24 175,-75 190.19,-91.46 201.7,-114.9 208.15,-130.03"/>
<polygon fill="#000000" fill-opacity="0.200000" stroke="#000000" stroke-width="2" stroke-opacity="0.200000" points="206.37,-131.22 210.6,-135.97 210.25,-129.62 206.37,-131.22"/>
</g>
<!-- modules/showCollection/ -->
<g id="node12" class="node">
<title>modules/showCollection/</title>
<g id="a_node12"><a xlink:href="modules/showCollection/" xlink:title="showCollection">
<polygon fill="#ffffcc" stroke="black" points="101,-34 20,-34 18,-32 18,-16 99,-16 101,-18 101,-34"/>
<polyline fill="none" stroke="black" points="99,-32 18,-32 "/>
<polyline fill="none" stroke="black" points="99,-32 99,-16 "/>
<polyline fill="none" stroke="black" points="99,-32 101,-34 "/>
<text text-anchor="start" x="26" y="-22.8" font-family="Helvetica,sans-Serif" font-size="9.00">showCollection</text>
</a>
</g>
</g>
<!-- modules/showCollection/&#45;&gt;modules/auth/ -->
<g id="edge14" class="edge">
<title>modules/showCollection/&#45;&gt;modules/auth/</title>
<path fill="none" stroke="#000000" stroke-width="2" stroke-opacity="0.200000" d="M101.06,-20.96C124.98,-20.76 154.48,-24.56 175,-41 202.39,-62.95 210.55,-106.27 212.97,-129.47"/>
<polygon fill="#000000" fill-opacity="0.200000" stroke="#000000" stroke-width="2" stroke-opacity="0.200000" points="210.91,-129.92 213.54,-135.71 215.09,-129.54 210.91,-129.92"/>
</g>
<!-- modules/showCollection/&#45;&gt;modules/show/ -->
<g id="edge15" class="edge">
<title>modules/showCollection/&#45;&gt;modules/show/</title>
<path fill="none" stroke="#000000" stroke-opacity="0.200000" d="M86.61,-34.08C92.04,-36.01 97.71,-38.05 103,-40 107.08,-41.51 111.38,-43.13 115.6,-44.74"/>
<polygon fill="none" stroke="#000000" stroke-opacity="0.200000" points="114.92,-46.73 121.28,-46.91 116.43,-42.8 114.92,-46.73"/>
</g>
<!-- modules/showReview/ -->
<g id="node13" class="node">
<title>modules/showReview/</title>
<g id="a_node13"><a xlink:href="modules/showReview/" xlink:title="showReview">
<polygon fill="#ffffcc" stroke="black" points="95,-94 26,-94 24,-92 24,-76 93,-76 95,-78 95,-94"/>
<polyline fill="none" stroke="black" points="93,-92 24,-92 "/>
<polyline fill="none" stroke="black" points="93,-92 93,-76 "/>
<polyline fill="none" stroke="black" points="93,-92 95,-94 "/>
<text text-anchor="start" x="32" y="-82.8" font-family="Helvetica,sans-Serif" font-size="9.00">showReview</text>
</a>
</g>
</g>
<!-- modules/showReview/&#45;&gt;modules/auth/ -->
<g id="edge16" class="edge">
<title>modules/showReview/&#45;&gt;modules/auth/</title>
<path fill="none" stroke="#000000" stroke-width="2" stroke-opacity="0.200000" d="M95.16,-79.32C119.03,-77.13 150.7,-77.76 175,-91 190.68,-99.54 201.63,-117.41 207.85,-130.26"/>
<polygon fill="#000000" fill-opacity="0.200000" stroke="#000000" stroke-width="2" stroke-opacity="0.200000" points="205.96,-131.18 210.38,-135.76 209.78,-129.43 205.96,-131.18"/>
</g>
<!-- modules/showReview/&#45;&gt;modules/company/ -->
<g id="edge17" class="edge">
<title>modules/showReview/&#45;&gt;modules/company/</title>
<path fill="none" stroke="#000000" stroke-opacity="0.200000" d="M94.91,-94.22C97.84,-95.85 100.6,-97.76 103,-100 113.63,-109.91 106.12,-119.34 116,-130 116.64,-130.69 117.32,-131.36 118.03,-132"/>
<polygon fill="none" stroke="#000000" stroke-opacity="0.200000" points="117.06,-133.89 123.1,-135.86 119.6,-130.55 117.06,-133.89"/>
</g>
<!-- modules/showReview/&#45;&gt;modules/show/ -->
<g id="edge18" class="edge">
<title>modules/showReview/&#45;&gt;modules/show/</title>
<path fill="none" stroke="#000000" stroke-opacity="0.200000" d="M86.62,-75.98C94.84,-73.15 104,-69.98 112.58,-67.02"/>
<polygon fill="none" stroke="#000000" stroke-opacity="0.200000" points="113.41,-68.95 118.4,-65.01 112.04,-64.98 113.41,-68.95"/>
</g>
<!-- modules/showWatchlist/ -->
<g id="node14" class="node">
<title>modules/showWatchlist/</title>
<g id="a_node14"><a xlink:href="modules/showWatchlist/" xlink:title="showWatchlist">
<polygon fill="#ffffcc" stroke="black" points="100,-64 21,-64 19,-62 19,-46 98,-46 100,-48 100,-64"/>
<polyline fill="none" stroke="black" points="98,-62 19,-62 "/>
<polyline fill="none" stroke="black" points="98,-62 98,-46 "/>
<polyline fill="none" stroke="black" points="98,-62 100,-64 "/>
<text text-anchor="start" x="27" y="-52.8" font-family="Helvetica,sans-Serif" font-size="9.00">showWatchlist</text>
</a>
</g>
</g>
<!-- modules/showWatchlist/&#45;&gt;modules/show/ -->
<g id="edge19" class="edge">
<title>modules/showWatchlist/&#45;&gt;modules/show/</title>
<path fill="none" stroke="#000000" stroke-width="2" stroke-opacity="0.200000" d="M100.04,-55.47C104.06,-55.52 108.11,-55.57 112.05,-55.61"/>
<polygon fill="#000000" fill-opacity="0.200000" stroke="#000000" stroke-width="2" stroke-opacity="0.200000" points="112.08,-57.71 118.11,-55.69 112.13,-53.51 112.08,-57.71"/>
</g>
<!-- modules/user/ -->
<g id="node15" class="node">
<title>modules/user/</title>
<g id="a_node15"><a xlink:href="modules/user/" xlink:title="user">
<polygon fill="#ffffcc" stroke="black" points="172.5,-228 120.5,-228 118.5,-226 118.5,-210 170.5,-210 172.5,-212 172.5,-228"/>
<polyline fill="none" stroke="black" points="170.5,-226 118.5,-226 "/>
<polyline fill="none" stroke="black" points="170.5,-226 170.5,-210 "/>
<polyline fill="none" stroke="black" points="170.5,-226 172.5,-228 "/>
<text text-anchor="start" x="135.5" y="-216.8" font-family="Helvetica,sans-Serif" font-size="9.00">user</text>
</a>
</g>
</g>
<!-- modules/user/&#45;&gt;modules/auth/ -->
<g id="edge20" class="edge">
<title>modules/user/&#45;&gt;modules/auth/</title>
<path fill="none" stroke="#000000" stroke-width="2" stroke-opacity="0.200000" d="M166.96,-209.87C169.82,-208.14 172.6,-206.18 175,-204 189.05,-191.28 200.34,-172.45 207.08,-159.5"/>
<polygon fill="#000000" fill-opacity="0.200000" stroke="#000000" stroke-width="2" stroke-opacity="0.200000" points="209.03,-160.31 209.86,-154.01 205.28,-158.42 209.03,-160.31"/>
</g>
</g>
</svg>
