<?xml version="1.0" encoding="UTF-8" standalone="no"?>
<!DOCTYPE svg PUBLIC "-//W3C//DTD SVG 1.1//EN"
 "http://www.w3.org/Graphics/SVG/1.1/DTD/svg11.dtd">
<!-- Generated by graphviz version 2.43.0 (0)
 -->
<!-- Title: dependency&#45;cruiser output Pages: 1 -->
<svg width="266pt" height="286pt"
 viewBox="0.00 0.00 266.00 286.00" xmlns="http://www.w3.org/2000/svg" xmlns:xlink="http://www.w3.org/1999/xlink">
<g id="graph0" class="graph" transform="scale(1 1) rotate(0) translate(4 282)">
<title>dependency&#45;cruiser output</title>
<polygon fill="white" stroke="transparent" points="-4,4 -4,-282 262,-282 262,4 -4,4"/>
<g id="clust1" class="cluster">
<title>cluster_modules</title>
<path fill="#ffffff" stroke="black" stroke-width="2" d="M20,-8C20,-8 238,-8 238,-8 244,-8 250,-14 250,-20 250,-20 250,-258 250,-258 250,-264 244,-270 238,-270 238,-270 20,-270 20,-270 14,-270 8,-264 8,-258 8,-258 8,-20 8,-20 8,-14 14,-8 20,-8"/>
<text text-anchor="middle" x="129" y="-258.8" font-family="Helvetica,sans-Serif" font-weight="bold" font-size="9.00">modules</text>
</g>
<!-- modules/auth/ -->
<g id="node1" class="node">
<title>modules/auth/</title>
<g id="a_node1"><a xlink:href="modules/auth/" xlink:title="auth">
<polygon fill="#ffffcc" stroke="black" points="242,-157 190,-157 188,-155 188,-139 240,-139 242,-141 242,-157"/>
<polyline fill="none" stroke="black" points="240,-155 188,-155 "/>
<polyline fill="none" stroke="black" points="240,-155 240,-139 "/>
<polyline fill="none" stroke="black" points="240,-155 242,-157 "/>
<text text-anchor="start" x="204" y="-145.8" font-family="Helvetica,sans-Serif" font-size="9.00">auth</text>
</a>
</g>
</g>
<!-- modules/company/ -->
<g id="node2" class="node">
<title>modules/company/</title>
<g id="a_node2"><a xlink:href="modules/company/" xlink:title="company">
<polygon fill="#ffffcc" stroke="black" points="175,-109 118,-109 116,-107 116,-91 173,-91 175,-93 175,-109"/>
<polyline fill="none" stroke="black" points="173,-107 116,-107 "/>
<polyline fill="none" stroke="black" points="173,-107 173,-91 "/>
<polyline fill="none" stroke="black" points="173,-107 175,-109 "/>
<text text-anchor="start" x="124" y="-97.8" font-family="Helvetica,sans-Serif" font-size="9.00">company</text>
</a>
</g>
</g>
<!-- modules/movie/ -->
<g id="node3" class="node">
<title>modules/movie/</title>
<g id="a_node3"><a xlink:href="modules/movie/" xlink:title="movie">
<polygon fill="#ffffcc" stroke="black" points="172.5,-64 120.5,-64 118.5,-62 118.5,-46 170.5,-46 172.5,-48 172.5,-64"/>
<polyline fill="none" stroke="black" points="170.5,-62 118.5,-62 "/>
<polyline fill="none" stroke="black" points="170.5,-62 170.5,-46 "/>
<polyline fill="none" stroke="black" points="170.5,-62 172.5,-64 "/>
<text text-anchor="start" x="131.5" y="-52.8" font-family="Helvetica,sans-Serif" font-size="9.00">movie</text>
</a>
</g>
</g>
<!-- modules/movie/&#45;&gt;modules/auth/ -->
<g id="edge1" class="edge">
<title>modules/movie/&#45;&gt;modules/auth/</title>
<path fill="none" stroke="#000000" stroke-width="2" stroke-opacity="0.200000" d="M163.28,-64.18C167.44,-66.97 171.65,-70.29 175,-74 190.97,-91.71 202.5,-117.14 208.71,-133.11"/>
<polygon fill="#000000" fill-opacity="0.200000" stroke="#000000" stroke-width="2" stroke-opacity="0.200000" points="206.82,-134.05 210.9,-138.93 210.75,-132.57 206.82,-134.05"/>
</g>
<!-- modules/movieCollection/ -->
<g id="node4" class="node">
<title>modules/movieCollection/</title>
<g id="a_node4"><a xlink:href="modules/movieCollection/" xlink:title="movieCollection">
<polygon fill="#ffffcc" stroke="black" points="103,-34 18,-34 16,-32 16,-16 101,-16 103,-18 103,-34"/>
<polyline fill="none" stroke="black" points="101,-32 16,-32 "/>
<polyline fill="none" stroke="black" points="101,-32 101,-16 "/>
<polyline fill="none" stroke="black" points="101,-32 103,-34 "/>
<text text-anchor="start" x="24" y="-22.8" font-family="Helvetica,sans-Serif" font-size="9.00">movieCollection</text>
</a>
</g>
</g>
<!-- modules/movieCollection/&#45;&gt;modules/auth/ -->
<g id="edge2" class="edge">
<title>modules/movieCollection/&#45;&gt;modules/auth/</title>
<path fill="none" stroke="#000000" stroke-width="2" stroke-opacity="0.200000" d="M103.03,-20.44C126.6,-20.2 155.08,-23.98 175,-40 203.68,-63.07 211.28,-109.04 213.28,-132.88"/>
<polygon fill="#000000" fill-opacity="0.200000" stroke="#000000" stroke-width="2" stroke-opacity="0.200000" points="211.2,-133.14 213.72,-138.98 215.39,-132.85 211.2,-133.14"/>
</g>
<!-- modules/movieCollection/&#45;&gt;modules/movie/ -->
<g id="edge3" class="edge">
<title>modules/movieCollection/&#45;&gt;modules/movie/</title>
<path fill="none" stroke="#000000" stroke-opacity="0.200000" d="M86.13,-34.01C91.7,-35.98 97.55,-38.05 103,-40 106.5,-41.25 110.17,-42.57 113.81,-43.88"/>
<polygon fill="none" stroke="#000000" stroke-opacity="0.200000" points="113.14,-45.87 119.49,-45.93 114.56,-41.92 113.14,-45.87"/>
</g>
<!-- modules/movieReview/ -->
<g id="node5" class="node">
<title>modules/movieReview/</title>
<g id="a_node5"><a xlink:href="modules/movieReview/" xlink:title="movieReview">
<polygon fill="#ffffcc" stroke="black" points="97,-94 24,-94 22,-92 22,-76 95,-76 97,-78 97,-94"/>
<polyline fill="none" stroke="black" points="95,-92 22,-92 "/>
<polyline fill="none" stroke="black" points="95,-92 95,-76 "/>
<polyline fill="none" stroke="black" points="95,-92 97,-94 "/>
<text text-anchor="start" x="30" y="-82.8" font-family="Helvetica,sans-Serif" font-size="9.00">movieReview</text>
</a>
</g>
</g>
<!-- modules/movieReview/&#45;&gt;modules/auth/ -->
<g id="edge4" class="edge">
<title>modules/movieReview/&#45;&gt;modules/auth/</title>
<path fill="none" stroke="#000000" stroke-width="2" stroke-opacity="0.200000" d="M97.08,-76.29C120.77,-72.66 151.47,-71.89 175,-85 193.09,-95.08 203.85,-117.4 209.35,-132.58"/>
<polygon fill="#000000" fill-opacity="0.200000" stroke="#000000" stroke-width="2" stroke-opacity="0.200000" points="207.47,-133.58 211.39,-138.59 211.45,-132.23 207.47,-133.58"/>
</g>
<!-- modules/movieReview/&#45;&gt;modules/company/ -->
<g id="edge5" class="edge">
<title>modules/movieReview/&#45;&gt;modules/company/</title>
<path fill="none" stroke="#000000" stroke-opacity="0.200000" d="M97.1,-91.54C101.32,-92.29 105.61,-93.06 109.8,-93.8"/>
<polygon fill="none" stroke="#000000" stroke-opacity="0.200000" points="109.57,-95.9 115.85,-94.88 110.31,-91.76 109.57,-95.9"/>
</g>
<!-- modules/movieReview/&#45;&gt;modules/movie/ -->
<g id="edge6" class="edge">
<title>modules/movieReview/&#45;&gt;modules/movie/</title>
<path fill="none" stroke="#000000" stroke-opacity="0.200000" d="M86.13,-75.99C91.7,-74.02 97.55,-71.95 103,-70 106.5,-68.75 110.17,-67.43 113.81,-66.12"/>
<polygon fill="none" stroke="#000000" stroke-opacity="0.200000" points="114.56,-68.08 119.49,-64.07 113.14,-64.13 114.56,-68.08"/>
</g>
<!-- modules/movieWatchlist/ -->
<g id="node6" class="node">
<title>modules/movieWatchlist/</title>
<g id="a_node6"><a xlink:href="modules/movieWatchlist/" xlink:title="movieWatchlist">
<polygon fill="#ffffcc" stroke="black" points="102,-64 19,-64 17,-62 17,-46 100,-46 102,-48 102,-64"/>
<polyline fill="none" stroke="black" points="100,-62 17,-62 "/>
<polyline fill="none" stroke="black" points="100,-62 100,-46 "/>
<polyline fill="none" stroke="black" points="100,-62 102,-64 "/>
<text text-anchor="start" x="25" y="-52.8" font-family="Helvetica,sans-Serif" font-size="9.00">movieWatchlist</text>
</a>
</g>
</g>
<!-- modules/movieWatchlist/&#45;&gt;modules/movie/ -->
<g id="edge7" class="edge">
<title>modules/movieWatchlist/&#45;&gt;modules/movie/</title>
<path fill="none" stroke="#000000" stroke-opacity="0.200000" d="M102.01,-55C105.33,-55 108.66,-55 111.91,-55"/>
<polygon fill="none" stroke="#000000" stroke-opacity="0.200000" points="112.04,-57.1 118.04,-55 112.04,-52.9 112.04,-57.1"/>
</g>
<!-- modules/review/ -->
<g id="node7" class="node">
<title>modules/review/</title>
<g id="a_node7"><a xlink:href="modules/review/" xlink:title="review">
<polygon fill="#ffffcc" stroke="black" points="86.5,-124 34.5,-124 32.5,-122 32.5,-106 84.5,-106 86.5,-108 86.5,-124"/>
<polyline fill="none" stroke="black" points="84.5,-122 32.5,-122 "/>
<polyline fill="none" stroke="black" points="84.5,-122 84.5,-106 "/>
<polyline fill="none" stroke="black" points="84.5,-122 86.5,-124 "/>
<text text-anchor="start" x="44.5" y="-112.8" font-family="Helvetica,sans-Serif" font-size="9.00">review</text>
</a>
</g>
</g>
<!-- modules/review/&#45;&gt;modules/company/ -->
<g id="edge8" class="edge">
<title>modules/review/&#45;&gt;modules/company/</title>
<path fill="none" stroke="#000000" stroke-opacity="0.200000" d="M86.62,-110.34C93.84,-109.05 101.8,-107.62 109.44,-106.26"/>
<polygon fill="none" stroke="#000000" stroke-opacity="0.200000" points="110.23,-108.25 115.77,-105.13 109.49,-104.12 110.23,-108.25"/>
</g>
<!-- modules/season/ -->
<g id="node8" class="node">
<title>modules/season/</title>
<g id="a_node8"><a xlink:href="modules/season/" xlink:title="season">
<polygon fill="#ffffcc" stroke="black" points="172.5,-153 120.5,-153 118.5,-151 118.5,-135 170.5,-135 172.5,-137 172.5,-153"/>
<polyline fill="none" stroke="black" points="170.5,-151 118.5,-151 "/>
<polyline fill="none" stroke="black" points="170.5,-151 170.5,-135 "/>
<polyline fill="none" stroke="black" points="170.5,-151 172.5,-153 "/>
<text text-anchor="start" x="130" y="-141.8" font-family="Helvetica,sans-Serif" font-size="9.00">season</text>
</a>
</g>
</g>
<!-- modules/seasonReview/ -->
<g id="node9" class="node">
<title>modules/seasonReview/</title>
<g id="a_node9"><a xlink:href="modules/seasonReview/" xlink:title="seasonReview">
<polygon fill="#ffffcc" stroke="black" points="99,-154 22,-154 20,-152 20,-136 97,-136 99,-138 99,-154"/>
<polyline fill="none" stroke="black" points="97,-152 20,-152 "/>
<polyline fill="none" stroke="black" points="97,-152 97,-136 "/>
<polyline fill="none" stroke="black" points="97,-152 99,-154 "/>
<text text-anchor="start" x="28" y="-142.8" font-family="Helvetica,sans-Serif" font-size="9.00">seasonReview</text>
</a>
</g>
</g>
<!-- modules/seasonReview/&#45;&gt;modules/auth/ -->
<g id="edge9" class="edge">
<title>modules/seasonReview/&#45;&gt;modules/auth/</title>
<path fill="none" stroke="#000000" stroke-width="2" stroke-opacity="0.200000" d="M86.15,-135.98C95.43,-133.15 106.07,-130.4 116,-129 141.96,-125.33 149.45,-123.11 175,-129 181.38,-130.47 187.93,-133.14 193.8,-136.02"/>
<polygon fill="#000000" fill-opacity="0.200000" stroke="#000000" stroke-width="2" stroke-opacity="0.200000" points="193.11,-138.03 199.4,-138.93 195.05,-134.3 193.11,-138.03"/>
</g>
<!-- modules/seasonReview/&#45;&gt;modules/company/ -->
<g id="edge10" class="edge">
<title>modules/seasonReview/&#45;&gt;modules/company/</title>
<path fill="none" stroke="#000000" stroke-opacity="0.200000" d="M90.92,-135.98C95.1,-134.25 99.25,-132.26 103,-130 109.73,-125.94 109.76,-122.79 116,-118 118.43,-116.14 121.05,-114.29 123.69,-112.52"/>
<polygon fill="none" stroke="#000000" stroke-opacity="0.200000" points="125.18,-114.06 129.07,-109.03 122.89,-110.53 125.18,-114.06"/>
</g>
<!-- modules/seasonReview/&#45;&gt;modules/season/ -->
<g id="edge11" class="edge">
<title>modules/seasonReview/&#45;&gt;modules/season/</title>
<path fill="none" stroke="#000000" stroke-opacity="0.200000" d="M99.06,-144.54C103.46,-144.49 107.92,-144.44 112.23,-144.38"/>
<polygon fill="none" stroke="#000000" stroke-opacity="0.200000" points="112.44,-146.48 118.42,-144.31 112.39,-142.28 112.44,-146.48"/>
</g>
<!-- modules/show/ -->
<g id="node10" class="node">
<title>modules/show/</title>
<g id="a_node10"><a xlink:href="modules/show/" xlink:title="show">
<polygon fill="#ffffcc" stroke="black" points="172.5,-227 120.5,-227 118.5,-225 118.5,-209 170.5,-209 172.5,-211 172.5,-227"/>
<polyline fill="none" stroke="black" points="170.5,-225 118.5,-225 "/>
<polyline fill="none" stroke="black" points="170.5,-225 170.5,-209 "/>
<polyline fill="none" stroke="black" points="170.5,-225 172.5,-227 "/>
<text text-anchor="start" x="133.5" y="-215.8" font-family="Helvetica,sans-Serif" font-size="9.00">show</text>
</a>
</g>
</g>
<!-- modules/show/&#45;&gt;modules/auth/ -->
<g id="edge12" class="edge">
<title>modules/show/&#45;&gt;modules/auth/</title>
<path fill="none" stroke="#000000" stroke-width="2" stroke-opacity="0.200000" d="M163.21,-208.87C167.28,-206.27 171.47,-203.25 175,-200 187.12,-188.82 198.1,-173.46 205.31,-162.34"/>
<polygon fill="#000000" fill-opacity="0.200000" stroke="#000000" stroke-width="2" stroke-opacity="0.200000" points="207.09,-163.45 208.53,-157.26 203.54,-161.2 207.09,-163.45"/>
</g>
<!-- modules/showCollection/ -->
<g id="node11" class="node">
<title>modules/showCollection/</title>
<g id="a_node11"><a xlink:href="modules/showCollection/" xlink:title="showCollection">
<polygon fill="#ffffcc" stroke="black" points="101,-244 20,-244 18,-242 18,-226 99,-226 101,-228 101,-244"/>
<polyline fill="none" stroke="black" points="99,-242 18,-242 "/>
<polyline fill="none" stroke="black" points="99,-242 99,-226 "/>
<polyline fill="none" stroke="black" points="99,-242 101,-244 "/>
<text text-anchor="start" x="26" y="-232.8" font-family="Helvetica,sans-Serif" font-size="9.00">showCollection</text>
</a>
</g>
</g>
<!-- modules/showCollection/&#45;&gt;modules/auth/ -->
<g id="edge13" class="edge">
<title>modules/showCollection/&#45;&gt;modules/auth/</title>
<path fill="none" stroke="#000000" stroke-width="2" stroke-opacity="0.200000" d="M98.53,-244C122.38,-247.44 152.7,-247.58 175,-233 198.81,-217.43 208.3,-183.36 211.91,-163.41"/>
<polygon fill="#000000" fill-opacity="0.200000" stroke="#000000" stroke-width="2" stroke-opacity="0.200000" points="214.03,-163.49 212.93,-157.23 209.88,-162.81 214.03,-163.49"/>
</g>
<!-- modules/showCollection/&#45;&gt;modules/show/ -->
<g id="edge14" class="edge">
<title>modules/showCollection/&#45;&gt;modules/show/</title>
<path fill="none" stroke="#000000" stroke-opacity="0.200000" d="M101.02,-226.8C104.79,-226.04 108.57,-225.27 112.24,-224.53"/>
<polygon fill="none" stroke="#000000" stroke-opacity="0.200000" points="112.84,-226.55 118.3,-223.3 112,-222.43 112.84,-226.55"/>
</g>
<!-- modules/showReview/ -->
<g id="node12" class="node">
<title>modules/showReview/</title>
<g id="a_node12"><a xlink:href="modules/showReview/" xlink:title="showReview">
<polygon fill="#ffffcc" stroke="black" points="95,-184 26,-184 24,-182 24,-166 93,-166 95,-168 95,-184"/>
<polyline fill="none" stroke="black" points="93,-182 24,-182 "/>
<polyline fill="none" stroke="black" points="93,-182 93,-166 "/>
<polyline fill="none" stroke="black" points="93,-182 95,-184 "/>
<text text-anchor="start" x="32" y="-172.8" font-family="Helvetica,sans-Serif" font-size="9.00">showReview</text>
</a>
</g>
</g>
<!-- modules/showReview/&#45;&gt;modules/auth/ -->
<g id="edge15" class="edge">
<title>modules/showReview/&#45;&gt;modules/auth/</title>
<path fill="none" stroke="#000000" stroke-width="2" stroke-opacity="0.200000" d="M90.49,-184C98.68,-186.07 107.62,-187.96 116,-189 142.02,-192.23 150.9,-199.34 175,-189 187.65,-183.58 198.13,-171.81 205.03,-162.27"/>
<polygon fill="#000000" fill-opacity="0.200000" stroke="#000000" stroke-width="2" stroke-opacity="0.200000" points="206.81,-163.39 208.49,-157.26 203.35,-161.01 206.81,-163.39"/>
</g>
<!-- modules/showReview/&#45;&gt;modules/company/ -->
<g id="edge16" class="edge">
<title>modules/showReview/&#45;&gt;modules/company/</title>
<path fill="none" stroke="#000000" stroke-opacity="0.200000" d="M94.93,-165.81C97.86,-164.17 100.61,-162.26 103,-160 113.87,-149.75 107.73,-141.44 116,-129 119.69,-123.45 124.54,-118.04 129.19,-113.43"/>
<polygon fill="none" stroke="#000000" stroke-opacity="0.200000" points="130.83,-114.77 133.73,-109.11 127.93,-111.73 130.83,-114.77"/>
</g>
<!-- modules/showReview/&#45;&gt;modules/show/ -->
<g id="edge17" class="edge">
<title>modules/showReview/&#45;&gt;modules/show/</title>
<path fill="none" stroke="#000000" stroke-opacity="0.200000" d="M90.29,-184.15C94.65,-185.88 99.01,-187.83 103,-190 109.41,-193.48 110.02,-195.83 116,-200 118.7,-201.88 121.59,-203.81 124.45,-205.67"/>
<polygon fill="none" stroke="#000000" stroke-opacity="0.200000" points="123.35,-207.45 129.54,-208.91 125.61,-203.91 123.35,-207.45"/>
</g>
<!-- modules/showWatchlist/ -->
<g id="node13" class="node">
<title>modules/showWatchlist/</title>
<g id="a_node13"><a xlink:href="modules/showWatchlist/" xlink:title="showWatchlist">
<polygon fill="#ffffcc" stroke="black" points="100,-214 21,-214 19,-212 19,-196 98,-196 100,-198 100,-214"/>
<polyline fill="none" stroke="black" points="98,-212 19,-212 "/>
<polyline fill="none" stroke="black" points="98,-212 98,-196 "/>
<polyline fill="none" stroke="black" points="98,-212 100,-214 "/>
<text text-anchor="start" x="27" y="-202.8" font-family="Helvetica,sans-Serif" font-size="9.00">showWatchlist</text>
</a>
</g>
</g>
<!-- modules/showWatchlist/&#45;&gt;modules/show/ -->
<g id="edge18" class="edge">
<title>modules/showWatchlist/&#45;&gt;modules/show/</title>
<path fill="none" stroke="#000000" stroke-width="2" stroke-opacity="0.200000" d="M100.04,-211.12C104.06,-211.74 108.11,-212.37 112.05,-212.98"/>
<polygon fill="#000000" fill-opacity="0.200000" stroke="#000000" stroke-width="2" stroke-opacity="0.200000" points="111.86,-215.07 118.11,-213.92 112.5,-210.92 111.86,-215.07"/>
</g>
<!-- modules/user/ -->
<g id="node14" class="node">
<title>modules/user/</title>
<g id="a_node14"><a xlink:href="modules/user/" xlink:title="user">
<polygon fill="#ffffcc" stroke="black" points="172.5,-183 120.5,-183 118.5,-181 118.5,-165 170.5,-165 172.5,-167 172.5,-183"/>
<polyline fill="none" stroke="black" points="170.5,-181 118.5,-181 "/>
<polyline fill="none" stroke="black" points="170.5,-181 170.5,-165 "/>
<polyline fill="none" stroke="black" points="170.5,-181 172.5,-183 "/>
<text text-anchor="start" x="135.5" y="-171.8" font-family="Helvetica,sans-Serif" font-size="9.00">user</text>
</a>
</g>
</g>
<!-- modules/user/&#45;&gt;modules/auth/ -->
<g id="edge19" class="edge">
<title>modules/user/&#45;&gt;modules/auth/</title>
<path fill="none" stroke="#000000" stroke-width="2" stroke-opacity="0.200000" d="M170.11,-164.91C174.81,-163.1 179.8,-161.17 184.66,-159.3"/>
<polygon fill="#000000" fill-opacity="0.200000" stroke="#000000" stroke-width="2" stroke-opacity="0.200000" points="185.45,-161.25 190.29,-157.13 183.94,-157.33 185.45,-161.25"/>
</g>
</g>
</svg>
