<?xml version="1.0" encoding="UTF-8" standalone="no"?>
<!DOCTYPE svg PUBLIC "-//W3C//DTD SVG 1.1//EN"
 "http://www.w3.org/Graphics/SVG/1.1/DTD/svg11.dtd">
<!-- Generated by graphviz version 2.43.0 (0)
 -->
<!-- Title: dependency&#45;cruiser output Pages: 1 -->
<svg width="360pt" height="324pt"
 viewBox="0.00 0.00 360.00 324.00" xmlns="http://www.w3.org/2000/svg" xmlns:xlink="http://www.w3.org/1999/xlink">
<g id="graph0" class="graph" transform="scale(1 1) rotate(0) translate(4 320)">
<title>dependency&#45;cruiser output</title>
<polygon fill="white" stroke="transparent" points="-4,4 -4,-320 356,-320 356,4 -4,4"/>
<g id="clust1" class="cluster">
<title>cluster_modules</title>
<path fill="#ffffff" stroke="black" stroke-width="2" d="M20,-8C20,-8 332,-8 332,-8 338,-8 344,-14 344,-20 344,-20 344,-296 344,-296 344,-302 338,-308 332,-308 332,-308 20,-308 20,-308 14,-308 8,-302 8,-296 8,-296 8,-20 8,-20 8,-14 14,-8 20,-8"/>
<text text-anchor="middle" x="176" y="-296.8" font-family="Helvetica,sans-Serif" font-weight="bold" font-size="9.00">modules</text>
</g>
<!-- modules/auth/ -->
<g id="node1" class="node">
<title>modules/auth/</title>
<g id="a_node1"><a xlink:href="modules/auth/" xlink:title="auth">
<polygon fill="#ffffcc" stroke="black" points="336,-145 284,-145 282,-143 282,-127 334,-127 336,-129 336,-145"/>
<polyline fill="none" stroke="black" points="334,-143 282,-143 "/>
<polyline fill="none" stroke="black" points="334,-143 334,-127 "/>
<polyline fill="none" stroke="black" points="334,-143 336,-145 "/>
<text text-anchor="start" x="298" y="-133.8" font-family="Helvetica,sans-Serif" font-size="9.00">auth</text>
</a>
</g>
</g>
<!-- modules/company/ -->
<g id="node2" class="node">
<title>modules/company/</title>
<g id="a_node2"><a xlink:href="modules/company/" xlink:title="company">
<polygon fill="#ffffcc" stroke="black" points="269,-282 212,-282 210,-280 210,-264 267,-264 269,-266 269,-282"/>
<polyline fill="none" stroke="black" points="267,-280 210,-280 "/>
<polyline fill="none" stroke="black" points="267,-280 267,-264 "/>
<polyline fill="none" stroke="black" points="267,-280 269,-282 "/>
<text text-anchor="start" x="218" y="-270.8" font-family="Helvetica,sans-Serif" font-size="9.00">company</text>
</a>
</g>
</g>
<!-- modules/company/&#45;&gt;modules/auth/ -->
<g id="edge1" class="edge">
<title>modules/company/&#45;&gt;modules/auth/</title>
<path fill="none" stroke="#000000" stroke-width="2" stroke-opacity="0.200000" d="M259.2,-263.82C262.83,-261.36 266.34,-258.42 269,-255 293.68,-223.34 303.05,-175.44 306.35,-151.2"/>
<polygon fill="#000000" fill-opacity="0.200000" stroke="#000000" stroke-width="2" stroke-opacity="0.200000" points="308.46,-151.24 307.13,-145.03 304.3,-150.72 308.46,-151.24"/>
</g>
<!-- modules/movie/ -->
<g id="node3" class="node">
<title>modules/movie/</title>
<g id="a_node3"><a xlink:href="modules/movie/" xlink:title="movie">
<polygon fill="#ffffcc" stroke="black" points="266.5,-238 214.5,-238 212.5,-236 212.5,-220 264.5,-220 266.5,-222 266.5,-238"/>
<polyline fill="none" stroke="black" points="264.5,-236 212.5,-236 "/>
<polyline fill="none" stroke="black" points="264.5,-236 264.5,-220 "/>
<polyline fill="none" stroke="black" points="264.5,-236 266.5,-238 "/>
<text text-anchor="start" x="225.5" y="-226.8" font-family="Helvetica,sans-Serif" font-size="9.00">movie</text>
</a>
</g>
</g>
<!-- modules/movie/&#45;&gt;modules/auth/ -->
<g id="edge2" class="edge">
<title>modules/movie/&#45;&gt;modules/auth/</title>
<path fill="none" stroke="#000000" stroke-width="2" stroke-opacity="0.200000" d="M258.19,-219.87C262.06,-217.34 265.91,-214.36 269,-211 285.31,-193.26 296.74,-167.42 302.84,-151.17"/>
<polygon fill="#000000" fill-opacity="0.200000" stroke="#000000" stroke-width="2" stroke-opacity="0.200000" points="304.92,-151.61 304.99,-145.25 300.97,-150.17 304.92,-151.61"/>
</g>
<!-- modules/movieCollection/ -->
<g id="node4" class="node">
<title>modules/movieCollection/</title>
<g id="a_node4"><a xlink:href="modules/movieCollection/" xlink:title="movieCollection">
<polygon fill="#ffffcc" stroke="black" points="197,-282 112,-282 110,-280 110,-264 195,-264 197,-266 197,-282"/>
<polyline fill="none" stroke="black" points="195,-280 110,-280 "/>
<polyline fill="none" stroke="black" points="195,-280 195,-264 "/>
<polyline fill="none" stroke="black" points="195,-280 197,-282 "/>
<text text-anchor="start" x="118" y="-270.8" font-family="Helvetica,sans-Serif" font-size="9.00">movieCollection</text>
</a>
</g>
</g>
<!-- modules/movieCollection/&#45;&gt;modules/auth/ -->
<g id="edge3" class="edge">
<title>modules/movieCollection/&#45;&gt;modules/auth/</title>
<path fill="none" stroke="#000000" stroke-width="2" stroke-opacity="0.200000" d="M187.32,-263.95C194.77,-261.95 202.65,-259.87 210,-258 236.12,-251.37 248.89,-261.94 269,-244 296.33,-219.61 304.52,-174.6 306.96,-151.13"/>
<polygon fill="#000000" fill-opacity="0.200000" stroke="#000000" stroke-width="2" stroke-opacity="0.200000" points="309.06,-151.28 307.51,-145.12 304.88,-150.9 309.06,-151.28"/>
</g>
<!-- modules/movieCollection/&#45;&gt;modules/movie/ -->
<g id="edge4" class="edge">
<title>modules/movieCollection/&#45;&gt;modules/movie/</title>
<path fill="none" stroke="#000000" stroke-opacity="0.200000" d="M177.75,-263.94C184.09,-261.26 190.89,-258.18 197,-255 198.22,-254.36 208.82,-247.72 218.99,-241.32"/>
<polygon fill="none" stroke="#000000" stroke-opacity="0.200000" points="220.27,-242.99 224.23,-238.02 218.03,-239.44 220.27,-242.99"/>
</g>
<!-- modules/movieReview/ -->
<g id="node5" class="node">
<title>modules/movieReview/</title>
<g id="a_node5"><a xlink:href="modules/movieReview/" xlink:title="movieReview">
<polygon fill="#ffffcc" stroke="black" points="94,-216 21,-216 19,-214 19,-198 92,-198 94,-200 94,-216"/>
<polyline fill="none" stroke="black" points="92,-214 19,-214 "/>
<polyline fill="none" stroke="black" points="92,-214 92,-198 "/>
<polyline fill="none" stroke="black" points="92,-214 94,-216 "/>
<text text-anchor="start" x="27" y="-204.8" font-family="Helvetica,sans-Serif" font-size="9.00">movieReview</text>
</a>
</g>
</g>
<!-- modules/movieReview/&#45;&gt;modules/auth/ -->
<g id="edge5" class="edge">
<title>modules/movieReview/&#45;&gt;modules/auth/</title>
<path fill="none" stroke="#000000" stroke-width="2" stroke-opacity="0.200000" d="M94.02,-209.43C122.56,-210.32 162.98,-209.34 197,-200 233.98,-189.85 271.49,-164.35 292.05,-148.77"/>
<polygon fill="#000000" fill-opacity="0.200000" stroke="#000000" stroke-width="2" stroke-opacity="0.200000" points="293.42,-150.36 296.9,-145.04 290.86,-147.04 293.42,-150.36"/>
</g>
<!-- modules/movieReview/&#45;&gt;modules/movie/ -->
<g id="edge6" class="edge">
<title>modules/movieReview/&#45;&gt;modules/movie/</title>
<path fill="none" stroke="#000000" stroke-opacity="0.200000" d="M66.57,-216.09C76.33,-225.17 92.78,-238.54 110,-244 146.86,-255.68 158.91,-250.67 197,-244 201.99,-243.13 207.17,-241.7 212.11,-240.07"/>
<polygon fill="none" stroke="#000000" stroke-opacity="0.200000" points="212.81,-242.05 217.77,-238.08 211.42,-238.09 212.81,-242.05"/>
</g>
<!-- modules/review/ -->
<g id="node6" class="node">
<title>modules/review/</title>
<g id="a_node6"><a xlink:href="modules/review/" xlink:title="review">
<polygon fill="#ffffcc" stroke="black" points="180.5,-194 128.5,-194 126.5,-192 126.5,-176 178.5,-176 180.5,-178 180.5,-194"/>
<polyline fill="none" stroke="black" points="178.5,-192 126.5,-192 "/>
<polyline fill="none" stroke="black" points="178.5,-192 178.5,-176 "/>
<polyline fill="none" stroke="black" points="178.5,-192 180.5,-194 "/>
<text text-anchor="start" x="138.5" y="-182.8" font-family="Helvetica,sans-Serif" font-size="9.00">review</text>
</a>
</g>
</g>
<!-- modules/movieReview/&#45;&gt;modules/review/ -->
<g id="edge7" class="edge">
<title>modules/movieReview/&#45;&gt;modules/review/</title>
<path fill="none" stroke="#000000" stroke-opacity="0.200000" d="M94.23,-198.49C102.8,-196.51 111.87,-194.41 120.23,-192.47"/>
<polygon fill="none" stroke="#000000" stroke-opacity="0.200000" points="121.09,-194.43 126.46,-191.03 120.14,-190.34 121.09,-194.43"/>
</g>
<!-- modules/user/ -->
<g id="node8" class="node">
<title>modules/user/</title>
<g id="a_node8"><a xlink:href="modules/user/" xlink:title="user">
<polygon fill="#ffffcc" stroke="black" points="266.5,-156 214.5,-156 212.5,-154 212.5,-138 264.5,-138 266.5,-140 266.5,-156"/>
<polyline fill="none" stroke="black" points="264.5,-154 212.5,-154 "/>
<polyline fill="none" stroke="black" points="264.5,-154 264.5,-138 "/>
<polyline fill="none" stroke="black" points="264.5,-154 266.5,-156 "/>
<text text-anchor="start" x="229.5" y="-144.8" font-family="Helvetica,sans-Serif" font-size="9.00">user</text>
</a>
</g>
</g>
<!-- modules/review/&#45;&gt;modules/user/ -->
<g id="edge10" class="edge">
<title>modules/review/&#45;&gt;modules/user/</title>
<path fill="none" stroke="#000000" stroke-opacity="0.200000" d="M180.84,-176.47C186.25,-174.51 191.86,-172.31 197,-170 204.04,-166.83 211.49,-162.9 218.11,-159.19"/>
<polygon fill="none" stroke="#000000" stroke-opacity="0.200000" points="219.27,-160.94 223.44,-156.14 217.19,-157.29 219.27,-160.94"/>
</g>
<!-- modules/movieWatchlist/ -->
<g id="node7" class="node">
<title>modules/movieWatchlist/</title>
<g id="a_node7"><a xlink:href="modules/movieWatchlist/" xlink:title="movieWatchlist">
<polygon fill="#ffffcc" stroke="black" points="196,-238 113,-238 111,-236 111,-220 194,-220 196,-222 196,-238"/>
<polyline fill="none" stroke="black" points="194,-236 111,-236 "/>
<polyline fill="none" stroke="black" points="194,-236 194,-220 "/>
<polyline fill="none" stroke="black" points="194,-236 196,-238 "/>
<text text-anchor="start" x="119" y="-226.8" font-family="Helvetica,sans-Serif" font-size="9.00">movieWatchlist</text>
</a>
</g>
</g>
<!-- modules/movieWatchlist/&#45;&gt;modules/auth/ -->
<g id="edge8" class="edge">
<title>modules/movieWatchlist/&#45;&gt;modules/auth/</title>
<path fill="none" stroke="#000000" stroke-width="2" stroke-opacity="0.200000" d="M187.88,-219.98C221.07,-210.96 267.3,-198.25 269,-197 284.91,-185.22 296.01,-164.85 302.19,-150.91"/>
<polygon fill="#000000" fill-opacity="0.200000" stroke="#000000" stroke-width="2" stroke-opacity="0.200000" points="304.13,-151.72 304.54,-145.38 300.26,-150.08 304.13,-151.72"/>
</g>
<!-- modules/movieWatchlist/&#45;&gt;modules/movie/ -->
<g id="edge9" class="edge">
<title>modules/movieWatchlist/&#45;&gt;modules/movie/</title>
<path fill="none" stroke="#000000" stroke-opacity="0.200000" d="M196.01,-229C199.33,-229 202.66,-229 205.91,-229"/>
<polygon fill="none" stroke="#000000" stroke-opacity="0.200000" points="206.04,-231.1 212.04,-229 206.04,-226.9 206.04,-231.1"/>
</g>
<!-- modules/user/&#45;&gt;modules/auth/ -->
<g id="edge23" class="edge">
<title>modules/user/&#45;&gt;modules/auth/</title>
<path fill="none" stroke="#000000" stroke-width="2" stroke-opacity="0.200000" d="M266.79,-142.72C269.69,-142.24 272.67,-141.76 275.63,-141.27"/>
<polygon fill="#000000" fill-opacity="0.200000" stroke="#000000" stroke-width="2" stroke-opacity="0.200000" points="276.09,-143.33 281.67,-140.29 275.41,-139.18 276.09,-143.33"/>
</g>
<!-- modules/season/ -->
<g id="node9" class="node">
<title>modules/season/</title>
<g id="a_node9"><a xlink:href="modules/season/" xlink:title="season">
<polygon fill="#ffffcc" stroke="black" points="180.5,-164 128.5,-164 126.5,-162 126.5,-146 178.5,-146 180.5,-148 180.5,-164"/>
<polyline fill="none" stroke="black" points="178.5,-162 126.5,-162 "/>
<polyline fill="none" stroke="black" points="178.5,-162 178.5,-146 "/>
<polyline fill="none" stroke="black" points="178.5,-162 180.5,-164 "/>
<text text-anchor="start" x="138" y="-152.8" font-family="Helvetica,sans-Serif" font-size="9.00">season</text>
</a>
</g>
</g>
<!-- modules/seasonReview/ -->
<g id="node10" class="node">
<title>modules/seasonReview/</title>
<g id="a_node10"><a xlink:href="modules/seasonReview/" xlink:title="seasonReview">
<polygon fill="#ffffcc" stroke="black" points="96,-164 19,-164 17,-162 17,-146 94,-146 96,-148 96,-164"/>
<polyline fill="none" stroke="black" points="94,-162 17,-162 "/>
<polyline fill="none" stroke="black" points="94,-162 94,-146 "/>
<polyline fill="none" stroke="black" points="94,-162 96,-164 "/>
<text text-anchor="start" x="25" y="-152.8" font-family="Helvetica,sans-Serif" font-size="9.00">seasonReview</text>
</a>
</g>
</g>
<!-- modules/seasonReview/&#45;&gt;modules/auth/ -->
<g id="edge11" class="edge">
<title>modules/seasonReview/&#45;&gt;modules/auth/</title>
<path fill="none" stroke="#000000" stroke-width="2" stroke-opacity="0.200000" d="M64.49,-145.96C73.59,-135.01 90.63,-117.16 110,-110 168.34,-88.42 242.15,-109.86 281.1,-124.61"/>
<polygon fill="#000000" fill-opacity="0.200000" stroke="#000000" stroke-width="2" stroke-opacity="0.200000" points="280.69,-126.71 287.04,-126.92 282.21,-122.79 280.69,-126.71"/>
</g>
<!-- modules/seasonReview/&#45;&gt;modules/review/ -->
<g id="edge13" class="edge">
<title>modules/seasonReview/&#45;&gt;modules/review/</title>
<path fill="none" stroke="#000000" stroke-opacity="0.200000" d="M86,-164C96.79,-167.41 109.15,-171.31 120.26,-174.82"/>
<polygon fill="none" stroke="#000000" stroke-opacity="0.200000" points="119.93,-176.92 126.29,-176.72 121.2,-172.91 119.93,-176.92"/>
</g>
<!-- modules/seasonReview/&#45;&gt;modules/season/ -->
<g id="edge12" class="edge">
<title>modules/seasonReview/&#45;&gt;modules/season/</title>
<path fill="none" stroke="#000000" stroke-opacity="0.200000" d="M96.14,-155C104.09,-155 112.38,-155 120.08,-155"/>
<polygon fill="none" stroke="#000000" stroke-opacity="0.200000" points="120.38,-157.1 126.38,-155 120.38,-152.9 120.38,-157.1"/>
</g>
<!-- modules/show/ -->
<g id="node11" class="node">
<title>modules/show/</title>
<g id="a_node11"><a xlink:href="modules/show/" xlink:title="show">
<polygon fill="#ffffcc" stroke="black" points="266.5,-75 214.5,-75 212.5,-73 212.5,-57 264.5,-57 266.5,-59 266.5,-75"/>
<polyline fill="none" stroke="black" points="264.5,-73 212.5,-73 "/>
<polyline fill="none" stroke="black" points="264.5,-73 264.5,-57 "/>
<polyline fill="none" stroke="black" points="264.5,-73 266.5,-75 "/>
<text text-anchor="start" x="227.5" y="-63.8" font-family="Helvetica,sans-Serif" font-size="9.00">show</text>
</a>
</g>
</g>
<!-- modules/show/&#45;&gt;modules/auth/ -->
<g id="edge14" class="edge">
<title>modules/show/&#45;&gt;modules/auth/</title>
<path fill="none" stroke="#000000" stroke-width="2" stroke-opacity="0.200000" d="M256.28,-75.18C260.62,-78.06 265.18,-81.42 269,-85 280.77,-96.03 291.7,-110.9 298.98,-121.73"/>
<polygon fill="#000000" fill-opacity="0.200000" stroke="#000000" stroke-width="2" stroke-opacity="0.200000" points="297.38,-123.13 302.43,-126.99 300.89,-120.82 297.38,-123.13"/>
</g>
<!-- modules/showCollection/ -->
<g id="node12" class="node">
<title>modules/showCollection/</title>
<g id="a_node12"><a xlink:href="modules/showCollection/" xlink:title="showCollection">
<polygon fill="#ffffcc" stroke="black" points="195,-48 114,-48 112,-46 112,-30 193,-30 195,-32 195,-48"/>
<polyline fill="none" stroke="black" points="193,-46 112,-46 "/>
<polyline fill="none" stroke="black" points="193,-46 193,-30 "/>
<polyline fill="none" stroke="black" points="193,-46 195,-48 "/>
<text text-anchor="start" x="120" y="-36.8" font-family="Helvetica,sans-Serif" font-size="9.00">showCollection</text>
</a>
</g>
</g>
<!-- modules/showCollection/&#45;&gt;modules/auth/ -->
<g id="edge15" class="edge">
<title>modules/showCollection/&#45;&gt;modules/auth/</title>
<path fill="none" stroke="#000000" stroke-width="2" stroke-opacity="0.200000" d="M195.07,-33.85C218.69,-32.99 247.89,-35.85 269,-51 292.11,-67.59 301.85,-101.28 305.7,-120.9"/>
<polygon fill="#000000" fill-opacity="0.200000" stroke="#000000" stroke-width="2" stroke-opacity="0.200000" points="303.67,-121.43 306.79,-126.97 307.8,-120.69 303.67,-121.43"/>
</g>
<!-- modules/showCollection/&#45;&gt;modules/show/ -->
<g id="edge16" class="edge">
<title>modules/showCollection/&#45;&gt;modules/show/</title>
<path fill="none" stroke="#000000" stroke-opacity="0.200000" d="M182.94,-48.14C190.52,-50.58 198.77,-53.23 206.53,-55.72"/>
<polygon fill="none" stroke="#000000" stroke-opacity="0.200000" points="206,-57.76 212.35,-57.6 207.28,-53.76 206,-57.76"/>
</g>
<!-- modules/showReview/ -->
<g id="node13" class="node">
<title>modules/showReview/</title>
<g id="a_node13"><a xlink:href="modules/showReview/" xlink:title="showReview">
<polygon fill="#ffffcc" stroke="black" points="92,-98 23,-98 21,-96 21,-80 90,-80 92,-82 92,-98"/>
<polyline fill="none" stroke="black" points="90,-96 21,-96 "/>
<polyline fill="none" stroke="black" points="90,-96 90,-80 "/>
<polyline fill="none" stroke="black" points="90,-96 92,-98 "/>
<text text-anchor="start" x="29" y="-86.8" font-family="Helvetica,sans-Serif" font-size="9.00">showReview</text>
</a>
</g>
</g>
<!-- modules/showReview/&#45;&gt;modules/auth/ -->
<g id="edge17" class="edge">
<title>modules/showReview/&#45;&gt;modules/auth/</title>
<path fill="none" stroke="#000000" stroke-width="2" stroke-opacity="0.200000" d="M92.37,-84.41C135.61,-80.21 210.72,-77.83 269,-102 279.72,-106.45 289.55,-115.06 296.66,-122.51"/>
<polygon fill="#000000" fill-opacity="0.200000" stroke="#000000" stroke-width="2" stroke-opacity="0.200000" points="295.12,-123.94 300.72,-126.95 298.22,-121.1 295.12,-123.94"/>
</g>
<!-- modules/showReview/&#45;&gt;modules/review/ -->
<g id="edge19" class="edge">
<title>modules/showReview/&#45;&gt;modules/review/</title>
<path fill="none" stroke="#000000" stroke-opacity="0.200000" d="M65.83,-98.26C74.4,-108.11 87.77,-124.38 97,-140 104.4,-152.51 99.37,-160.09 110,-170 113.08,-172.87 116.73,-175.19 120.59,-177.08"/>
<polygon fill="none" stroke="#000000" stroke-opacity="0.200000" points="120.01,-179.11 126.35,-179.53 121.65,-175.25 120.01,-179.11"/>
</g>
<!-- modules/showReview/&#45;&gt;modules/show/ -->
<g id="edge18" class="edge">
<title>modules/showReview/&#45;&gt;modules/show/</title>
<path fill="none" stroke="#000000" stroke-opacity="0.200000" d="M92.4,-84.57C125.34,-80.38 174.31,-74.16 206.33,-70.09"/>
<polygon fill="none" stroke="#000000" stroke-opacity="0.200000" points="206.81,-72.14 212.49,-69.3 206.28,-67.98 206.81,-72.14"/>
</g>
<!-- modules/showWatchlist/ -->
<g id="node14" class="node">
<title>modules/showWatchlist/</title>
<g id="a_node14"><a xlink:href="modules/showWatchlist/" xlink:title="showWatchlist">
<polygon fill="#ffffcc" stroke="black" points="97,-48 18,-48 16,-46 16,-30 95,-30 97,-32 97,-48"/>
<polyline fill="none" stroke="black" points="95,-46 16,-46 "/>
<polyline fill="none" stroke="black" points="95,-46 95,-30 "/>
<polyline fill="none" stroke="black" points="95,-46 97,-48 "/>
<text text-anchor="start" x="24" y="-36.8" font-family="Helvetica,sans-Serif" font-size="9.00">showWatchlist</text>
</a>
</g>
</g>
<!-- modules/showWatchlist/&#45;&gt;modules/auth/ -->
<g id="edge22" class="edge">
<title>modules/showWatchlist/&#45;&gt;modules/auth/</title>
<path fill="none" stroke="#000000" stroke-width="2" stroke-opacity="0.200000" d="M79.05,-29.95C120.54,-14.11 212.42,13.08 269,-30 297.67,-51.82 305.27,-96.92 307.28,-120.64"/>
<polygon fill="#000000" fill-opacity="0.200000" stroke="#000000" stroke-width="2" stroke-opacity="0.200000" points="305.2,-120.89 307.72,-126.73 309.39,-120.6 305.2,-120.89"/>
</g>
<!-- modules/showWatchlist/&#45;&gt;modules/show/ -->
<g id="edge20" class="edge">
<title>modules/showWatchlist/&#45;&gt;modules/show/</title>
<path fill="none" stroke="#000000" stroke-width="2" stroke-opacity="0.200000" d="M85.61,-48.07C93.43,-50.31 101.99,-52.49 110,-54 142.41,-60.09 180.04,-63.14 206.16,-64.64"/>
<polygon fill="#000000" fill-opacity="0.200000" stroke="#000000" stroke-width="2" stroke-opacity="0.200000" points="206.11,-66.74 212.21,-64.97 206.34,-62.55 206.11,-66.74"/>
</g>
<!-- modules/showWatchlist/&#45;&gt;modules/showCollection/ -->
<g id="edge21" class="edge">
<title>modules/showWatchlist/&#45;&gt;modules/showCollection/</title>
<path fill="none" stroke="#000000" stroke-opacity="0.200000" d="M97.24,-39C99.93,-39 102.65,-39 105.37,-39"/>
<polygon fill="none" stroke="#000000" stroke-opacity="0.200000" points="105.7,-41.1 111.7,-39 105.7,-36.9 105.7,-41.1"/>
</g>
<!-- modules/watchlist/ -->
<g id="node15" class="node">
<title>modules/watchlist/</title>
<g id="a_node15"><a xlink:href="modules/watchlist/" xlink:title="watchlist">
<polygon fill="#ffffcc" stroke="black" points="182,-134 127,-134 125,-132 125,-116 180,-116 182,-118 182,-134"/>
<polyline fill="none" stroke="black" points="180,-132 125,-132 "/>
<polyline fill="none" stroke="black" points="180,-132 180,-116 "/>
<polyline fill="none" stroke="black" points="180,-132 182,-134 "/>
<text text-anchor="start" x="133" y="-122.8" font-family="Helvetica,sans-Serif" font-size="9.00">watchlist</text>
</a>
</g>
</g>
<!-- modules/watchlist/&#45;&gt;modules/auth/ -->
<g id="edge24" class="edge">
<title>modules/watchlist/&#45;&gt;modules/auth/</title>
<path fill="none" stroke="#000000" stroke-width="2" stroke-opacity="0.200000" d="M182.29,-126.38C205.49,-127.61 239.42,-129.58 269,-132 271.04,-132.17 273.13,-132.35 275.24,-132.54"/>
<polygon fill="#000000" fill-opacity="0.200000" stroke="#000000" stroke-width="2" stroke-opacity="0.200000" points="275.41,-134.67 281.58,-133.14 275.81,-130.49 275.41,-134.67"/>
</g>
<!-- modules/watchlist/&#45;&gt;modules/user/ -->
<g id="edge25" class="edge">
<title>modules/watchlist/&#45;&gt;modules/user/</title>
<path fill="none" stroke="#000000" stroke-opacity="0.200000" d="M182,-132.2C189.78,-134.24 198.32,-136.48 206.34,-138.58"/>
<polygon fill="none" stroke="#000000" stroke-opacity="0.200000" points="206.02,-140.67 212.36,-140.15 207.09,-136.6 206.02,-140.67"/>
</g>
</g>
</svg>
