<?xml version="1.0" encoding="UTF-8" standalone="no"?>
<!DOCTYPE svg PUBLIC "-//W3C//DTD SVG 1.1//EN"
 "http://www.w3.org/Graphics/SVG/1.1/DTD/svg11.dtd">
<!-- Generated by graphviz version 2.43.0 (0)
 -->
<!-- Title: dependency&#45;cruiser output Pages: 1 -->
<svg width="282pt" height="350pt"
 viewBox="0.00 0.00 282.00 350.00" xmlns="http://www.w3.org/2000/svg" xmlns:xlink="http://www.w3.org/1999/xlink">
<g id="graph0" class="graph" transform="scale(1 1) rotate(0) translate(4 346)">
<title>dependency&#45;cruiser output</title>
<polygon fill="white" stroke="transparent" points="-4,4 -4,-346 278,-346 278,4 -4,4"/>
<g id="clust1" class="cluster">
<title>cluster_src</title>
<path fill="#ffffff" stroke="black" stroke-width="2" d="M20,-8C20,-8 254,-8 254,-8 260,-8 266,-14 266,-20 266,-20 266,-322 266,-322 266,-328 260,-334 254,-334 254,-334 20,-334 20,-334 14,-334 8,-328 8,-322 8,-322 8,-20 8,-20 8,-14 14,-8 20,-8"/>
<text text-anchor="middle" x="137" y="-322.8" font-family="Helvetica,sans-Serif" font-weight="bold" font-size="9.00">src</text>
</g>
<g id="clust2" class="cluster">
<title>cluster_src/modules</title>
<path fill="#ffffff" stroke="black" stroke-width="2" d="M28,-16C28,-16 246,-16 246,-16 252,-16 258,-22 258,-28 258,-28 258,-296 258,-296 258,-302 252,-308 246,-308 246,-308 28,-308 28,-308 22,-308 16,-302 16,-296 16,-296 16,-28 16,-28 16,-22 22,-16 28,-16"/>
<text text-anchor="middle" x="137" y="-296.8" font-family="Helvetica,sans-Serif" font-weight="bold" font-size="9.00">modules</text>
</g>
<!-- src/modules/auth/ -->
<g id="node1" class="node">
<title>src/modules/auth/</title>
<g id="a_node1"><a xlink:href="src/modules/auth/" xlink:title="auth">
<polygon fill="#ffffcc" stroke="black" points="250,-162 198,-162 196,-160 196,-144 248,-144 250,-146 250,-162"/>
<polyline fill="none" stroke="black" points="248,-160 196,-160 "/>
<polyline fill="none" stroke="black" points="248,-160 248,-144 "/>
<polyline fill="none" stroke="black" points="248,-160 250,-162 "/>
<text text-anchor="start" x="212" y="-150.8" font-family="Helvetica,sans-Serif" font-size="9.00">auth</text>
</a>
</g>
</g>
<!-- src/modules/company/ -->
<g id="node2" class="node">
<title>src/modules/company/</title>
<g id="a_node2"><a xlink:href="src/modules/company/" xlink:title="company">
<polygon fill="#ffffcc" stroke="black" points="183,-162 126,-162 124,-160 124,-144 181,-144 183,-146 183,-162"/>
<polyline fill="none" stroke="black" points="181,-160 124,-160 "/>
<polyline fill="none" stroke="black" points="181,-160 181,-144 "/>
<polyline fill="none" stroke="black" points="181,-160 183,-162 "/>
<text text-anchor="start" x="132" y="-150.8" font-family="Helvetica,sans-Serif" font-size="9.00">company</text>
</a>
</g>
</g>
<!-- src/modules/company/&#45;&gt;src/modules/auth/ -->
<g id="edge1" class="edge">
<title>src/modules/company/&#45;&gt;src/modules/auth/</title>
<path fill="none" stroke="#000000" stroke-width="2" stroke-opacity="0.200000" d="M183.13,-153C185.21,-153 187.32,-153 189.43,-153"/>
<polygon fill="#000000" fill-opacity="0.200000" stroke="#000000" stroke-width="2" stroke-opacity="0.200000" points="189.69,-155.1 195.69,-153 189.69,-150.9 189.69,-155.1"/>
</g>
<!-- src/modules/meta/ -->
<g id="node3" class="node">
<title>src/modules/meta/</title>
<g id="a_node3"><a xlink:href="src/modules/meta/" xlink:title="meta">
<polygon fill="#ffffcc" stroke="black" points="94.5,-282 42.5,-282 40.5,-280 40.5,-264 92.5,-264 94.5,-266 94.5,-282"/>
<polyline fill="none" stroke="black" points="92.5,-280 40.5,-280 "/>
<polyline fill="none" stroke="black" points="92.5,-280 92.5,-264 "/>
<polyline fill="none" stroke="black" points="92.5,-280 94.5,-282 "/>
<text text-anchor="start" x="55.5" y="-270.8" font-family="Helvetica,sans-Serif" font-size="9.00">meta</text>
</a>
</g>
</g>
<!-- src/modules/movie/ -->
<g id="node4" class="node">
<title>src/modules/movie/</title>
<g id="a_node4"><a xlink:href="src/modules/movie/" xlink:title="movie">
<polygon fill="#ffffcc" stroke="black" points="180.5,-206 128.5,-206 126.5,-204 126.5,-188 178.5,-188 180.5,-190 180.5,-206"/>
<polyline fill="none" stroke="black" points="178.5,-204 126.5,-204 "/>
<polyline fill="none" stroke="black" points="178.5,-204 178.5,-188 "/>
<polyline fill="none" stroke="black" points="178.5,-204 180.5,-206 "/>
<text text-anchor="start" x="139.5" y="-194.8" font-family="Helvetica,sans-Serif" font-size="9.00">movie</text>
</a>
</g>
</g>
<!-- src/modules/movie/&#45;&gt;src/modules/auth/ -->
<g id="edge2" class="edge">
<title>src/modules/movie/&#45;&gt;src/modules/auth/</title>
<path fill="none" stroke="#000000" stroke-width="2" stroke-opacity="0.200000" d="M169.04,-187.91C173.53,-185.08 178.48,-181.93 183,-179 189.61,-174.71 196.81,-169.94 203.19,-165.67"/>
<polygon fill="#000000" fill-opacity="0.200000" stroke="#000000" stroke-width="2" stroke-opacity="0.200000" points="204.52,-167.31 208.34,-162.23 202.18,-163.82 204.52,-167.31"/>
</g>
<!-- src/modules/movieCollection/ -->
<g id="node5" class="node">
<title>src/modules/movieCollection/</title>
<g id="a_node5"><a xlink:href="src/modules/movieCollection/" xlink:title="movieCollection">
<polygon fill="#ffffcc" stroke="black" points="111,-252 26,-252 24,-250 24,-234 109,-234 111,-236 111,-252"/>
<polyline fill="none" stroke="black" points="109,-250 24,-250 "/>
<polyline fill="none" stroke="black" points="109,-250 109,-234 "/>
<polyline fill="none" stroke="black" points="109,-250 111,-252 "/>
<text text-anchor="start" x="32" y="-240.8" font-family="Helvetica,sans-Serif" font-size="9.00">movieCollection</text>
</a>
</g>
</g>
<!-- src/modules/movieCollection/&#45;&gt;src/modules/auth/ -->
<g id="edge3" class="edge">
<title>src/modules/movieCollection/&#45;&gt;src/modules/auth/</title>
<path fill="none" stroke="#000000" stroke-width="2" stroke-opacity="0.200000" d="M103.41,-252.01C127.7,-256.19 159.77,-257.33 183,-242 208.03,-225.48 217.1,-188.99 220.31,-168.23"/>
<polygon fill="#000000" fill-opacity="0.200000" stroke="#000000" stroke-width="2" stroke-opacity="0.200000" points="222.42,-168.32 221.16,-162.09 218.26,-167.74 222.42,-168.32"/>
</g>
<!-- src/modules/movieCollection/&#45;&gt;src/modules/movie/ -->
<g id="edge4" class="edge">
<title>src/modules/movieCollection/&#45;&gt;src/modules/movie/</title>
<path fill="none" stroke="#000000" stroke-opacity="0.200000" d="M100.56,-233.87C104.23,-232.2 107.8,-230.25 111,-228 118.49,-222.72 116.91,-217.81 124,-212 125.17,-211.04 126.42,-210.11 127.71,-209.23"/>
<polygon fill="none" stroke="#000000" stroke-opacity="0.200000" points="128.87,-210.98 132.82,-206 126.63,-207.42 128.87,-210.98"/>
</g>
<!-- src/modules/movieReview/ -->
<g id="node6" class="node">
<title>src/modules/movieReview/</title>
<g id="a_node6"><a xlink:href="src/modules/movieReview/" xlink:title="movieReview">
<polygon fill="#ffffcc" stroke="black" points="105,-192 32,-192 30,-190 30,-174 103,-174 105,-176 105,-192"/>
<polyline fill="none" stroke="black" points="103,-190 30,-190 "/>
<polyline fill="none" stroke="black" points="103,-190 103,-174 "/>
<polyline fill="none" stroke="black" points="103,-190 105,-192 "/>
<text text-anchor="start" x="38" y="-180.8" font-family="Helvetica,sans-Serif" font-size="9.00">movieReview</text>
</a>
</g>
</g>
<!-- src/modules/movieReview/&#45;&gt;src/modules/auth/ -->
<g id="edge5" class="edge">
<title>src/modules/movieReview/&#45;&gt;src/modules/auth/</title>
<path fill="none" stroke="#000000" stroke-width="2" stroke-opacity="0.200000" d="M105.01,-180.44C127.71,-178.3 157.35,-174.51 183,-168 187.06,-166.97 191.28,-165.64 195.37,-164.2"/>
<polygon fill="#000000" fill-opacity="0.200000" stroke="#000000" stroke-width="2" stroke-opacity="0.200000" points="196.35,-166.08 201.25,-162.03 194.89,-162.14 196.35,-166.08"/>
</g>
<!-- src/modules/movieReview/&#45;&gt;src/modules/company/ -->
<g id="edge6" class="edge">
<title>src/modules/movieReview/&#45;&gt;src/modules/company/</title>
<path fill="none" stroke="#000000" stroke-opacity="0.200000" d="M94.13,-173.99C99.7,-172.02 105.55,-169.95 111,-168 114.5,-166.75 118.17,-165.43 121.81,-164.12"/>
<polygon fill="none" stroke="#000000" stroke-opacity="0.200000" points="122.56,-166.08 127.49,-162.07 121.14,-162.13 122.56,-166.08"/>
</g>
<!-- src/modules/movieReview/&#45;&gt;src/modules/movie/ -->
<g id="edge7" class="edge">
<title>src/modules/movieReview/&#45;&gt;src/modules/movie/</title>
<path fill="none" stroke="#000000" stroke-opacity="0.200000" d="M105.1,-189.1C110.07,-189.93 115.15,-190.77 120.04,-191.59"/>
<polygon fill="none" stroke="#000000" stroke-opacity="0.200000" points="119.86,-193.69 126.12,-192.6 120.55,-189.55 119.86,-193.69"/>
</g>
<!-- src/modules/movieWatchlist/ -->
<g id="node7" class="node">
<title>src/modules/movieWatchlist/</title>
<g id="a_node7"><a xlink:href="src/modules/movieWatchlist/" xlink:title="movieWatchlist">
<polygon fill="#ffffcc" stroke="black" points="110,-222 27,-222 25,-220 25,-204 108,-204 110,-206 110,-222"/>
<polyline fill="none" stroke="black" points="108,-220 25,-220 "/>
<polyline fill="none" stroke="black" points="108,-220 108,-204 "/>
<polyline fill="none" stroke="black" points="108,-220 110,-222 "/>
<text text-anchor="start" x="33" y="-210.8" font-family="Helvetica,sans-Serif" font-size="9.00">movieWatchlist</text>
</a>
</g>
</g>
<!-- src/modules/movieWatchlist/&#45;&gt;src/modules/movie/ -->
<g id="edge8" class="edge">
<title>src/modules/movieWatchlist/&#45;&gt;src/modules/movie/</title>
<path fill="none" stroke="#000000" stroke-opacity="0.200000" d="M110.01,-205.09C113.33,-204.46 116.66,-203.83 119.91,-203.21"/>
<polygon fill="none" stroke="#000000" stroke-opacity="0.200000" points="120.54,-205.23 126.04,-202.04 119.75,-201.1 120.54,-205.23"/>
</g>
<!-- src/modules/review/ -->
<g id="node8" class="node">
<title>src/modules/review/</title>
<g id="a_node8"><a xlink:href="src/modules/review/" xlink:title="review">
<polygon fill="#ffffcc" stroke="black" points="94.5,-162 42.5,-162 40.5,-160 40.5,-144 92.5,-144 94.5,-146 94.5,-162"/>
<polyline fill="none" stroke="black" points="92.5,-160 40.5,-160 "/>
<polyline fill="none" stroke="black" points="92.5,-160 92.5,-144 "/>
<polyline fill="none" stroke="black" points="92.5,-160 94.5,-162 "/>
<text text-anchor="start" x="52.5" y="-150.8" font-family="Helvetica,sans-Serif" font-size="9.00">review</text>
</a>
</g>
</g>
<!-- src/modules/review/&#45;&gt;src/modules/company/ -->
<g id="edge9" class="edge">
<title>src/modules/review/&#45;&gt;src/modules/company/</title>
<path fill="none" stroke="#000000" stroke-opacity="0.200000" d="M94.62,-153C101.84,-153 109.8,-153 117.44,-153"/>
<polygon fill="none" stroke="#000000" stroke-opacity="0.200000" points="117.77,-155.1 123.77,-153 117.77,-150.9 117.77,-155.1"/>
</g>
<!-- src/modules/season/ -->
<g id="node9" class="node">
<title>src/modules/season/</title>
<g id="a_node9"><a xlink:href="src/modules/season/" xlink:title="season">
<polygon fill="#ffffcc" stroke="black" points="180.5,-132 128.5,-132 126.5,-130 126.5,-114 178.5,-114 180.5,-116 180.5,-132"/>
<polyline fill="none" stroke="black" points="178.5,-130 126.5,-130 "/>
<polyline fill="none" stroke="black" points="178.5,-130 178.5,-114 "/>
<polyline fill="none" stroke="black" points="178.5,-130 180.5,-132 "/>
<text text-anchor="start" x="138" y="-120.8" font-family="Helvetica,sans-Serif" font-size="9.00">season</text>
</a>
</g>
</g>
<!-- src/modules/seasonReview/ -->
<g id="node10" class="node">
<title>src/modules/seasonReview/</title>
<g id="a_node10"><a xlink:href="src/modules/seasonReview/" xlink:title="seasonReview">
<polygon fill="#ffffcc" stroke="black" points="107,-132 30,-132 28,-130 28,-114 105,-114 107,-116 107,-132"/>
<polyline fill="none" stroke="black" points="105,-130 28,-130 "/>
<polyline fill="none" stroke="black" points="105,-130 105,-114 "/>
<polyline fill="none" stroke="black" points="105,-130 107,-132 "/>
<text text-anchor="start" x="36" y="-120.8" font-family="Helvetica,sans-Serif" font-size="9.00">seasonReview</text>
</a>
</g>
</g>
<!-- src/modules/seasonReview/&#45;&gt;src/modules/auth/ -->
<g id="edge10" class="edge">
<title>src/modules/seasonReview/&#45;&gt;src/modules/auth/</title>
<path fill="none" stroke="#000000" stroke-width="2" stroke-opacity="0.200000" d="M96.16,-113.99C104.96,-111.54 114.8,-109.22 124,-108 149.99,-104.55 159.15,-97.11 183,-108 196.61,-114.22 207.3,-127.79 214.02,-138.42"/>
<polygon fill="#000000" fill-opacity="0.200000" stroke="#000000" stroke-width="2" stroke-opacity="0.200000" points="212.27,-139.59 217.17,-143.65 215.87,-137.42 212.27,-139.59"/>
</g>
<!-- src/modules/seasonReview/&#45;&gt;src/modules/company/ -->
<g id="edge11" class="edge">
<title>src/modules/seasonReview/&#45;&gt;src/modules/company/</title>
<path fill="none" stroke="#000000" stroke-opacity="0.200000" d="M94.13,-132.01C99.7,-133.98 105.55,-136.05 111,-138 114.5,-139.25 118.17,-140.57 121.81,-141.88"/>
<polygon fill="none" stroke="#000000" stroke-opacity="0.200000" points="121.14,-143.87 127.49,-143.93 122.56,-139.92 121.14,-143.87"/>
</g>
<!-- src/modules/seasonReview/&#45;&gt;src/modules/season/ -->
<g id="edge12" class="edge">
<title>src/modules/seasonReview/&#45;&gt;src/modules/season/</title>
<path fill="none" stroke="#000000" stroke-opacity="0.200000" d="M107.06,-123C111.46,-123 115.92,-123 120.23,-123"/>
<polygon fill="none" stroke="#000000" stroke-opacity="0.200000" points="120.42,-125.1 126.42,-123 120.42,-120.9 120.42,-125.1"/>
</g>
<!-- src/modules/show/ -->
<g id="node11" class="node">
<title>src/modules/show/</title>
<g id="a_node11"><a xlink:href="src/modules/show/" xlink:title="show">
<polygon fill="#ffffcc" stroke="black" points="180.5,-73 128.5,-73 126.5,-71 126.5,-55 178.5,-55 180.5,-57 180.5,-73"/>
<polyline fill="none" stroke="black" points="178.5,-71 126.5,-71 "/>
<polyline fill="none" stroke="black" points="178.5,-71 178.5,-55 "/>
<polyline fill="none" stroke="black" points="178.5,-71 180.5,-73 "/>
<text text-anchor="start" x="141.5" y="-61.8" font-family="Helvetica,sans-Serif" font-size="9.00">show</text>
</a>
</g>
</g>
<!-- src/modules/show/&#45;&gt;src/modules/auth/ -->
<g id="edge13" class="edge">
<title>src/modules/show/&#45;&gt;src/modules/auth/</title>
<path fill="none" stroke="#000000" stroke-width="2" stroke-opacity="0.200000" d="M170.92,-73.04C175.18,-75.87 179.53,-79.24 183,-83 198.19,-99.46 209.7,-122.9 216.15,-138.03"/>
<polygon fill="#000000" fill-opacity="0.200000" stroke="#000000" stroke-width="2" stroke-opacity="0.200000" points="214.37,-139.22 218.6,-143.97 218.25,-137.62 214.37,-139.22"/>
</g>
<!-- src/modules/showCollection/ -->
<g id="node12" class="node">
<title>src/modules/showCollection/</title>
<g id="a_node12"><a xlink:href="src/modules/showCollection/" xlink:title="showCollection">
<polygon fill="#ffffcc" stroke="black" points="109,-42 28,-42 26,-40 26,-24 107,-24 109,-26 109,-42"/>
<polyline fill="none" stroke="black" points="107,-40 26,-40 "/>
<polyline fill="none" stroke="black" points="107,-40 107,-24 "/>
<polyline fill="none" stroke="black" points="107,-40 109,-42 "/>
<text text-anchor="start" x="34" y="-30.8" font-family="Helvetica,sans-Serif" font-size="9.00">showCollection</text>
</a>
</g>
</g>
<!-- src/modules/showCollection/&#45;&gt;src/modules/auth/ -->
<g id="edge14" class="edge">
<title>src/modules/showCollection/&#45;&gt;src/modules/auth/</title>
<path fill="none" stroke="#000000" stroke-width="2" stroke-opacity="0.200000" d="M109.06,-28.96C132.98,-28.76 162.48,-32.56 183,-49 210.39,-70.95 218.55,-114.27 220.97,-137.47"/>
<polygon fill="#000000" fill-opacity="0.200000" stroke="#000000" stroke-width="2" stroke-opacity="0.200000" points="218.91,-137.92 221.54,-143.71 223.09,-137.54 218.91,-137.92"/>
</g>
<!-- src/modules/showCollection/&#45;&gt;src/modules/show/ -->
<g id="edge15" class="edge">
<title>src/modules/showCollection/&#45;&gt;src/modules/show/</title>
<path fill="none" stroke="#000000" stroke-opacity="0.200000" d="M94.61,-42.08C100.04,-44.01 105.71,-46.05 111,-48 115.08,-49.51 119.38,-51.13 123.6,-52.74"/>
<polygon fill="none" stroke="#000000" stroke-opacity="0.200000" points="122.92,-54.73 129.28,-54.91 124.43,-50.8 122.92,-54.73"/>
</g>
<!-- src/modules/showReview/ -->
<g id="node13" class="node">
<title>src/modules/showReview/</title>
<g id="a_node13"><a xlink:href="src/modules/showReview/" xlink:title="showReview">
<polygon fill="#ffffcc" stroke="black" points="103,-102 34,-102 32,-100 32,-84 101,-84 103,-86 103,-102"/>
<polyline fill="none" stroke="black" points="101,-100 32,-100 "/>
<polyline fill="none" stroke="black" points="101,-100 101,-84 "/>
<polyline fill="none" stroke="black" points="101,-100 103,-102 "/>
<text text-anchor="start" x="40" y="-90.8" font-family="Helvetica,sans-Serif" font-size="9.00">showReview</text>
</a>
</g>
</g>
<!-- src/modules/showReview/&#45;&gt;src/modules/auth/ -->
<g id="edge16" class="edge">
<title>src/modules/showReview/&#45;&gt;src/modules/auth/</title>
<path fill="none" stroke="#000000" stroke-width="2" stroke-opacity="0.200000" d="M103.16,-87.32C127.03,-85.13 158.7,-85.76 183,-99 198.68,-107.54 209.63,-125.41 215.85,-138.26"/>
<polygon fill="#000000" fill-opacity="0.200000" stroke="#000000" stroke-width="2" stroke-opacity="0.200000" points="213.96,-139.18 218.38,-143.76 217.78,-137.43 213.96,-139.18"/>
</g>
<!-- src/modules/showReview/&#45;&gt;src/modules/company/ -->
<g id="edge17" class="edge">
<title>src/modules/showReview/&#45;&gt;src/modules/company/</title>
<path fill="none" stroke="#000000" stroke-opacity="0.200000" d="M102.91,-102.22C105.84,-103.85 108.6,-105.76 111,-108 121.63,-117.91 114.12,-127.34 124,-138 124.64,-138.69 125.32,-139.36 126.03,-140"/>
<polygon fill="none" stroke="#000000" stroke-opacity="0.200000" points="125.06,-141.89 131.1,-143.86 127.6,-138.55 125.06,-141.89"/>
</g>
<!-- src/modules/showReview/&#45;&gt;src/modules/show/ -->
<g id="edge18" class="edge">
<title>src/modules/showReview/&#45;&gt;src/modules/show/</title>
<path fill="none" stroke="#000000" stroke-opacity="0.200000" d="M94.62,-83.98C102.84,-81.15 112,-77.98 120.58,-75.02"/>
<polygon fill="none" stroke="#000000" stroke-opacity="0.200000" points="121.41,-76.95 126.4,-73.01 120.04,-72.98 121.41,-76.95"/>
</g>
<!-- src/modules/showWatchlist/ -->
<g id="node14" class="node">
<title>src/modules/showWatchlist/</title>
<g id="a_node14"><a xlink:href="src/modules/showWatchlist/" xlink:title="showWatchlist">
<polygon fill="#ffffcc" stroke="black" points="108,-72 29,-72 27,-70 27,-54 106,-54 108,-56 108,-72"/>
<polyline fill="none" stroke="black" points="106,-70 27,-70 "/>
<polyline fill="none" stroke="black" points="106,-70 106,-54 "/>
<polyline fill="none" stroke="black" points="106,-70 108,-72 "/>
<text text-anchor="start" x="35" y="-60.8" font-family="Helvetica,sans-Serif" font-size="9.00">showWatchlist</text>
</a>
</g>
</g>
<!-- src/modules/showWatchlist/&#45;&gt;src/modules/show/ -->
<g id="edge19" class="edge">
<title>src/modules/showWatchlist/&#45;&gt;src/modules/show/</title>
<path fill="none" stroke="#000000" stroke-width="2" stroke-opacity="0.200000" d="M108.04,-63.47C112.06,-63.52 116.11,-63.57 120.05,-63.61"/>
<polygon fill="#000000" fill-opacity="0.200000" stroke="#000000" stroke-width="2" stroke-opacity="0.200000" points="120.08,-65.71 126.11,-63.69 120.13,-61.51 120.08,-65.71"/>
</g>
<!-- src/modules/user/ -->
<g id="node15" class="node">
<title>src/modules/user/</title>
<g id="a_node15"><a xlink:href="src/modules/user/" xlink:title="user">
<polygon fill="#ffffcc" stroke="black" points="180.5,-236 128.5,-236 126.5,-234 126.5,-218 178.5,-218 180.5,-220 180.5,-236"/>
<polyline fill="none" stroke="black" points="178.5,-234 126.5,-234 "/>
<polyline fill="none" stroke="black" points="178.5,-234 178.5,-218 "/>
<polyline fill="none" stroke="black" points="178.5,-234 180.5,-236 "/>
<text text-anchor="start" x="143.5" y="-224.8" font-family="Helvetica,sans-Serif" font-size="9.00">user</text>
</a>
</g>
</g>
<!-- src/modules/user/&#45;&gt;src/modules/auth/ -->
<g id="edge20" class="edge">
<title>src/modules/user/&#45;&gt;src/modules/auth/</title>
<path fill="none" stroke="#000000" stroke-width="2" stroke-opacity="0.200000" d="M174.96,-217.87C177.82,-216.14 180.6,-214.18 183,-212 197.05,-199.28 208.34,-180.45 215.08,-167.5"/>
<polygon fill="#000000" fill-opacity="0.200000" stroke="#000000" stroke-width="2" stroke-opacity="0.200000" points="217.03,-168.31 217.86,-162.01 213.28,-166.42 217.03,-168.31"/>
</g>
</g>
</svg>
